#N canvas 205 27 629 717 12;
#X floatatom 50 239 15 0 0 0 - - -, f 15;
#X obj 50 264 / 100;
#X obj 369 658 makenote;
#X obj 392 726 print notes;
#X obj 444 142 lvn.telemetry;
#X text 263 582 👈 note \, vel \, duration, f 22;
#X obj 369 690 pack f f;
#X obj 453 31 r hues;
#X obj 453 97 print;
#N canvas 544 239 450 301 banner 0;
#X obj 6 6 cnv 15 392 107 empty empty empty 20 12 0 14 #c0c0c0 #404040
0;
#X text 200 70 suite dependencies: cyclone;
#X text 200 90 example dependencies: ggee;
#X text 10 32 an n-dimensional dynamic music composition framework
, f 54;
#X obj 11 55 cnv 5 380 5 empty empty empty 20 12 0 14 #fcfcfc #404040
0;
#X obj 11 57 cnv 5 380 5 empty empty empty 20 12 0 14 #fc8080 #404040
0;
#X obj 17 19 cnv 3 80 3 empty \$0cvs0 -=ELEVON=- -2 -2 0 14 #fc9898
#000000 0;
#X coords 0 -1 1 1 400 115 2 2 2;
#X restore 29 17 pd banner;
#X obj 453 64 spigot;
#X obj 504 33 tgl 15 0 empty empty empty 17 7 0 10 #fcfcfc #000000
#000000 0 1;
#X obj 49 341 lvn.hyperstave 12;
#X floatatom 77 1045 5 0 0 0 - - -, f 5;
#X floatatom 164 1045 5 0 0 0 - - -, f 5;
#X obj 251 1045 tgl 15 0 empty empty empty 17 7 0 10 #fcfcfc #000000
#000000 1 1;
#X obj 49 904 lvn.stave, f 26;
#X text 142 714 👆 containing staves in subpatches is a good idea
for multiple dimensions, f 20;
#X msg 137 300 connect 0;
#X obj 77 976 route distance relativepos active coords, f 50;
#X obj 337 1014 cyclone/prepend set;
#X msg 337 1045 0 2;
#X msg 49 299 hue \$1;
#X msg 287 844 notes 54 127 1000;
#X floatatom 87 807 5 0 0 0 - - -, f 5;
#X obj 194 807 tgl 15 0 empty empty empty 17 7 0 10 #fcfcfc #000000
#000000 0 1;
#X msg 194 844 button \$1;
#X msg 87 844 playhead \$1;
#X obj 369 727 bng 15 250 50 0 empty empty empty 17 7 0 10 #fcfcfc
#000000 #000000;
#X text 213 290 👈 update connections with staves, f 21;
#X text 251 884 👈 messages to stave, f 26;
#X text 247 930 👈 data from parent hyperstave. use to drive music
🎵🎵, f 31;
#X obj 49 654 route 0 1 2, f 20;
#X text 59 194 map control data to hue 📈👇, f 17;
#X text 67 610 👈link with staves, f 19;
#N canvas 620 13 786 781 stave2 0;
#X obj 35 23 inlet;
#X floatatom 276 209 5 0 0 0 - - -, f 5;
#X text 211 239 distance 0 is on target 1 is on neighbouring stave
0.5 is borderline, f 24;
#X floatatom 403 206 5 0 0 0 - - -, f 5;
#X obj 530 194 tgl 15 0 empty empty empty 17 7 0 10 #fcfcfc #000000
#000000 0 1;
#X msg 530 239 button \$1;
#X msg 403 243 playhead \$1;
#X obj 30 310 lvn.hyperstave 6;
#X text 246 71 👈 send up to parent, f 26;
#X text 91 24 👈 links with parent, f 26;
#X obj 35 80 lvn.stave, f 26;
#X obj 276 160 route distance relativepos active coords, f 41;
#X obj 30 470 route 3;
#X obj 30 520 lvn.stave;
#X obj 210 600 cyclone/prepend set;
#X obj 210 570 route coords, f 18;
#X msg 210 630 0 0 3;
#X text 40 140 👈 link with child hyperstave, f 19;
#X obj 694 546 t a;
#X obj 693 35 t a;
#X obj 223 460 prepend notes;
#X text 333 456 👈 send notes up to parent hyperstave, f 21;
#X connect 0 0 10 0;
#X connect 3 0 6 0;
#X connect 4 0 5 0;
#X connect 5 0 18 0;
#X connect 7 0 12 0;
#X connect 7 1 20 0;
#X connect 10 0 7 0;
#X connect 10 1 11 0;
#X connect 11 0 1 0;
#X connect 11 1 3 0;
#X connect 11 2 4 0;
#X connect 12 0 13 0;
#X connect 13 1 15 0;
#X connect 14 0 16 0;
#X connect 15 0 14 0;
#X connect 18 0 19 0;
#X connect 19 0 10 1;
#X connect 20 0 18 0;
#X restore 140 692 pd stave2;
#X obj 51 168 r px, f 5;
#X connect 0 0 1 0;
#X connect 1 0 22 0;
#X connect 2 0 6 0;
#X connect 2 1 6 1;
#X connect 6 0 3 0;
#X connect 6 0 28 0;
#X connect 7 0 10 0;
#X connect 10 0 8 0;
#X connect 11 0 10 1;
#X connect 12 0 32 0;
#X connect 12 1 2 0;
#X connect 16 1 19 0;
#X connect 18 0 12 0;
#X connect 19 0 13 0;
#X connect 19 1 14 0;
#X connect 19 2 15 0;
#X connect 19 3 20 0;
#X connect 20 0 21 0;
#X connect 22 0 12 0;
#X connect 23 0 16 1;
#X connect 24 0 27 0;
#X connect 25 0 26 0;
#X connect 26 0 16 1;
#X connect 27 0 16 1;
#X connect 32 0 16 0;
#X connect 32 2 35 0;
#X connect 36 0 0 0;
