#N canvas 45 44 992 674 12;
#X floatatom 189 87 15 0 0 0 - - -, f 15;
#X obj 189 112 / 100;
#X obj 379 384 makenote;
#X obj 371 482 print notes;
#N canvas 978 75 543 656 stave0 1;
#X obj 163 92 inlet;
#X floatatom 315 408 17 0 0 0 - - -, f 17;
#X floatatom 39 219 5 0 0 0 - - -, f 5;
#X text 83 217 👈 distance 0 is on target 1 is on neighbouring stave
0.5 is borderline, f 26;
#X text 34 551 👆send note/velocity/duration can send note offs to
flush, f 29;
#X obj 315 436 / 100;
#X obj 315 471 sub/fmod 1;
#X obj 41 134 lvn.stave-link, f 18;
#X text 291 222 would also be useful to have 0 - 1 \, entrance to exit
of stave. That would allow chaining with parent., f 30;
#X obj 313 562 s $to-parent;
#X obj 40 88 r $to-parent;
#X msg 39 435 54 127 1000;
#X obj 37 522 s $to-parent;
#X obj 38 473 cyclone/prepend notes;
#X obj 314 517 cyclone/prepend playhead;
#X text 217 92 👈 links with hyperstave, f 26;
#X obj 39 186 route distance;
#X connect 0 0 7 1;
#X connect 1 0 5 0;
#X connect 5 0 6 0;
#X connect 6 0 14 0;
#X connect 7 0 16 0;
#X connect 10 0 7 0;
#X connect 11 0 13 0;
#X connect 13 0 12 0;
#X connect 14 0 9 0;
#X connect 16 0 2 0;
#X restore 193 403 pd stave0;
#X text 193 428 👆 musical content in staves. subpatch linked with
stave-link patch., f 19;
#X text 187 28 📈👇 map position (or other things) to hue, f 17
;
#X obj 14 13 lvn.telemetry;
#X obj 193 153 lvn.hyperstave;
#X obj 657 86 lvn.n.hyperstave;
#X obj 192 372 route 0;
#X text 403 341 👈 note \, vel \, duration, f 22;
#X obj 374 436 pack f f;
#X connect 0 0 1 0;
#X connect 1 0 8 0;
#X connect 2 0 12 0;
#X connect 2 1 12 1;
#X connect 8 0 10 0;
#X connect 8 1 2 0;
#X connect 10 0 4 0;
#X connect 12 0 3 0;
