#N canvas -7 0 784 786 12;
#X floatatom 170 209 15 0 0 0 - - -, f 15;
#X obj 170 234 / 100;
#X obj 436 615 makenote;
#X obj 436 683 print notes;
#X text 170 140 📈👇 map position (or other things) to hue, f
17;
#X obj 10 130 lvn.telemetry;
#X text 428 562 👈 note \, vel \, duration, f 22;
#X obj 436 647 pack f f;
#X obj 169 595 route 0 1, f 20;
#X obj 450 23 r hues;
#X obj 450 89 print;
#N canvas 544 239 450 301 banner 0;
#X obj 6 6 cnv 15 392 107 empty empty empty 20 12 0 14 #c0c0c0 #404040
0;
#X text 200 70 suite dependencies: cyclone;
#X text 200 90 example dependencies: ggee;
#X text 10 32 an n-dimensional dynamic music composition framework
, f 54;
#X obj 11 55 cnv 5 380 5 empty empty empty 20 12 0 14 #fcfcfc #404040
0;
#X obj 11 57 cnv 5 380 5 empty empty empty 20 12 0 14 #fc8080 #404040
0;
#X obj 17 19 cnv 3 80 3 empty \$0cvs0 -=ELEVON=- -2 -2 0 14 #fc9898
#000000 0;
#X coords 0 -1 1 1 400 115 2 2 2;
#X restore 10 10 pd banner;
#X obj 450 56 spigot;
#X obj 501 25 tgl 15 0 empty empty empty 17 7 0 10 #fcfcfc #000000
#000000 0 1;
#X text 35 574 link with staves👉, f 19;
#X obj 169 309 lvn.hyperstave 12;
#N canvas -7 0 784 786 stave1 0;
#X obj 40 10 inlet;
#X floatatom 225 181 5 0 0 0 - - -, f 5;
#X text 423 508 👆send note/velocity/duration can send note offs
to flush, f 29;
#X msg 426 352 54 127 1000;
#X text 160 211 distance 0 is on target 1 is on neighbouring stave
0.5 is borderline, f 24;
#X floatatom 352 178 5 0 0 0 - - -, f 5;
#X obj 479 166 tgl 15 0 empty empty empty 17 7 0 10 #fcfcfc #000000
#000000 1 1;
#X msg 479 211 button \$1;
#X msg 352 215 playhead \$1;
#X obj 426 397 list prepend notes;
#X obj 426 433 route list;
#X obj 534 87 canvasinfo;
#X msg 539 45 print;
#X obj 352 251 sl to-parent;
#X obj 481 251 sl to-parent;
#X obj 426 479 sl to-parent;
#X obj 220 40 rl to-parent;
#X obj 30 310 lvn.hyperstave 6;
#X text 320 40 👈 send up to parent, f 26;
#X text 96 11 👈 links with parent, f 26;
#X obj 35 80 lvn.stave, f 26;
#X obj 225 132 route distance relativepos active coords, f 71;
#X obj 590 200 cyclone/prepend set;
#X msg 590 250 0 1;
#X obj 30 470 route 3;
#X obj 30 520 lvn.stave;
#X obj 210 600 cyclone/prepend set;
#X obj 210 570 route coords, f 18;
#X msg 210 630 0 1 3;
#X text 40 140 👈 link with child hyperstave, f 19;
#X connect 0 0 20 0;
#X connect 3 0 9 0;
#X connect 5 0 8 0;
#X connect 6 0 7 0;
#X connect 7 0 14 0;
#X connect 8 0 13 0;
#X connect 9 0 10 0;
#X connect 10 0 15 0;
#X connect 12 0 11 0;
#X connect 16 0 20 1;
#X connect 17 0 24 0;
#X connect 20 0 17 0;
#X connect 20 1 21 0;
#X connect 21 0 1 0;
#X connect 21 1 5 0;
#X connect 21 2 6 0;
#X connect 21 3 22 0;
#X connect 22 0 23 0;
#X connect 24 0 25 0;
#X connect 25 1 27 0;
#X connect 26 0 28 0;
#X connect 27 0 26 0;
#X restore 229 636 pd stave1;
#X floatatom 200 931 5 0 0 0 - - -, f 5;
#X floatatom 287 928 5 0 0 0 - - -, f 5;
#X obj 374 926 tgl 15 0 empty empty empty 17 7 0 10 #fcfcfc #000000
#000000 0 1;
#X obj 170 830 lvn.stave, f 26;
#X text 231 658 👆 containing staves in subpatches is a good idea
for multiple dimensions, f 19;
#X msg 277 260 connect 0;
#X obj 200 882 route distance relativepos active coords, f 50;
#X obj 460 920 cyclone/prepend set;
#X msg 460 950 0 0;
#X text 390 820 👈 control stave, f 26;
#X msg 169 272 hue \$1;
#X msg 410 780 notes 54 127 1000;
#X floatatom 210 751 5 0 0 0 - - -, f 5;
#X obj 317 741 tgl 15 0 empty empty empty 17 7 0 10 #fcfcfc #000000
#000000 0 1;
#X msg 317 786 button \$1;
#X msg 210 788 playhead \$1;
#X obj 407 590 t b a;
#X obj 405 622 bng 15 250 50 0 empty empty empty 17 7 0 10 #fcfcfc
#000000 #000000;
#X text 353 260 👈 update connections with staves, f 21;
#X connect 0 0 1 0;
#X connect 1 0 27 0;
#X connect 2 0 7 0;
#X connect 2 1 7 1;
#X connect 7 0 3 0;
#X connect 8 0 20 0;
#X connect 8 1 16 0;
#X connect 9 0 12 0;
#X connect 12 0 10 0;
#X connect 13 0 12 1;
#X connect 15 0 8 0;
#X connect 15 1 33 0;
#X connect 20 1 23 0;
#X connect 22 0 15 0;
#X connect 23 0 17 0;
#X connect 23 1 18 0;
#X connect 23 2 19 0;
#X connect 23 3 24 0;
#X connect 24 0 25 0;
#X connect 27 0 15 0;
#X connect 28 0 20 1;
#X connect 29 0 32 0;
#X connect 30 0 31 0;
#X connect 31 0 20 1;
#X connect 32 0 20 1;
#X connect 33 0 34 0;
#X connect 33 1 2 0;
