#N canvas 268 68 786 641 12;
#X floatatom 30 179 15 0 0 0 - - -, f 15;
#X obj 30 204 / 100;
#X obj 219 568 makenote;
#X obj 242 636 print notes;
#X obj 571 491 lvn.telemetry;
#X obj 219 600 pack f f;
#X obj 453 31 r hues;
#X obj 453 97 print;
#N canvas 544 237 450 305 banner 0;
#X obj 6 6 cnv 15 392 62 empty empty empty 20 12 0 14 #c0c0c0 #404040
0;
#X text 10 32 an n-dimensional dynamic music composition framework
, f 54;
#X obj 11 55 cnv 5 380 5 empty empty empty 20 12 0 14 #fcfcfc #404040
0;
#X obj 11 57 cnv 5 380 5 empty empty empty 20 12 0 14 #fc8080 #404040
0;
#X obj 17 19 cnv 3 80 3 empty \$0cvs0 -=ELEVON=- -2 -2 0 14 #fc9898
#000000 0;
#X coords 0 -1 1 1 400 69 2 2 2;
#X restore 29 27 pd banner;
#X obj 453 64 spigot;
#X obj 504 33 tgl 15 0 empty empty empty 17 7 0 10 #fcfcfc #000000
#000000 0 1;
#X obj 29 281 lvn.hyperstave 12;
#X floatatom 27 1075 5 0 0 0 - - -, f 5;
#X floatatom 114 1075 5 0 0 0 - - -, f 5;
#X obj 201 1075 tgl 15 0 empty empty empty 17 7 0 10 #fcfcfc #000000
#000000 0 1;
#X obj 29 934 lvn.stave, f 26;
#X text 122 714 👆 containing staves in subpatches is a good idea
for multiple dimensions, f 20;
#X msg 147 230 connect 0;
#X obj 27 1006 route distance relativepos active coords, f 50;
#X obj 287 1044 cyclone/prepend set;
#X msg 287 1075 0 2;
#X msg 29 239 hue \$1;
#X msg 267 874 notes 54 127 1000;
#X floatatom 67 837 5 0 0 0 - - -, f 5;
#X obj 174 837 tgl 15 0 empty empty empty 17 7 0 10 #fcfcfc #000000
#000000 0 1;
#X msg 174 874 button \$1;
#X msg 67 874 playhead \$1;
#X obj 219 637 bng 15 250 50 0 empty empty empty 17 7 0 10 #fcfcfc
#000000 #000000;
#X text 223 230 👈 update connections with staves, f 21;
#X obj 29 654 route 0 1 2, f 20;
#X text 39 134 map control data to hue 📈👇, f 17;
#X text 39 605 👈link with staves, f 19;
#N canvas 620 12 786 782 stave2 0;
#X obj 35 23 inlet;
#X floatatom 276 209 5 0 0 0 - - -, f 5;
#X text 211 239 distance 0 is on target 1 is on neighbouring stave
0.5 is borderline, f 24;
#X floatatom 403 206 5 0 0 0 - - -, f 5;
#X obj 530 194 tgl 15 0 empty empty empty 17 7 0 10 #fcfcfc #000000
#000000 0 1;
#X msg 530 239 button \$1;
#X msg 403 243 playhead \$1;
#X obj 35 310 lvn.hyperstave 6;
#X obj 35 80 lvn.stave, f 26;
#X obj 276 160 route distance relativepos active coords, f 41;
#X obj 35 490 route 3;
#X obj 35 540 lvn.stave;
#X obj 220 620 cyclone/prepend set;
#X obj 220 590 route coords, f 18;
#X msg 220 650 0 0 3;
#X obj 694 546 t a;
#X obj 693 35 t a;
#X obj 223 460 prepend notes;
#X text 333 456 👈 send notes upstream;
#X text 246 71 👈 send up to parent note bus, f 18;
#X text 40 140 👈 link with child hyperstave!, f 19;
#X connect 0 0 8 0;
#X connect 3 0 6 0;
#X connect 4 0 5 0;
#X connect 5 0 15 0;
#X connect 6 0 15 0;
#X connect 7 0 10 0;
#X connect 7 1 17 0;
#X connect 8 0 7 0;
#X connect 8 1 9 0;
#X connect 9 0 1 0;
#X connect 9 1 3 0;
#X connect 9 2 4 0;
#X connect 10 0 11 0;
#X connect 11 1 13 0;
#X connect 12 0 14 0;
#X connect 13 0 12 0;
#X connect 15 0 16 0;
#X connect 16 0 8 1;
#X connect 17 0 15 0;
#X restore 120 692 pd stave2;
#X obj 31 108 r px, f 5;
#X text 568 465 🥏lvn.telemetry;
#X obj 519 216 lvn.transport;
#X msg 524 152 rewind;
#X msg 581 153 play \$1;
#X obj 582 118 tgl 15 0 empty empty empty 17 7 0 10 #fcfcfc #000000
#000000 0 1;
#X msg 645 152 bpm \$1;
#X floatatom 645 115 5 0 0 0 - - -, f 5;
#X text 538 353 ⏰lvn.transport;
#X text 242 404 🌈lvn.hyperstave;
#X text 233 944 🎼lvn.stave;
#X text 389 1007 👈 information about stave state;
#X text 237 533 👈 note bus (note \, vel \, duration), f 18;
#X obj 645 57 loadbang;
#X msg 645 87 110;
#X connect 0 0 1 0;
#X connect 1 0 21 0;
#X connect 2 0 5 0;
#X connect 2 1 5 1;
#X connect 5 0 3 0;
#X connect 5 0 27 0;
#X connect 6 0 9 0;
#X connect 9 0 7 0;
#X connect 10 0 9 1;
#X connect 11 0 29 0;
#X connect 11 1 2 0;
#X connect 15 1 18 0;
#X connect 17 0 11 0;
#X connect 18 0 12 0;
#X connect 18 1 13 0;
#X connect 18 2 14 0;
#X connect 18 3 19 0;
#X connect 19 0 20 0;
#X connect 21 0 11 0;
#X connect 22 0 15 1;
#X connect 23 0 26 0;
#X connect 24 0 25 0;
#X connect 25 0 15 1;
#X connect 26 0 15 1;
#X connect 29 0 15 0;
#X connect 29 2 32 0;
#X connect 33 0 0 0;
#X connect 36 0 35 0;
#X connect 37 0 35 0;
#X connect 38 0 37 0;
#X connect 39 0 35 0;
#X connect 40 0 39 0;
#X connect 46 0 47 0;
#X connect 47 0 40 0;
