#N canvas -8 -8 786 795 12;
#X floatatom 285 211 15 0 0 0 - - -, f 15;
#X obj 285 236 / 100;
#X obj 471 557 makenote;
#X obj 471 625 print notes;
#N canvas 644 91 773 622 stave0 0;
#X obj 82 66 cnv 15 208 50 empty empty empty 20 12 0 14 #ffb0b0 #404040
0;
#X obj 274 38 inlet;
#X floatatom 95 181 5 0 0 0 - - -, f 5;
#X text 483 508 👆send note/velocity/duration can send note offs
to flush, f 29;
#X obj 95 80 lvn.stave-link, f 26;
#X msg 486 352 54 127 1000;
#X text 330 39 👈 links with hyperstave, f 26;
#X text 30 211 distance 0 is on target 1 is on neighbouring stave 0.5
is borderline, f 24;
#X floatatom 222 178 5 0 0 0 - - -, f 5;
#X obj 349 166 tgl 15 0 empty empty empty 17 7 0 10 #fcfcfc #000000
#000000 0 1;
#X obj 95 132 route distance relativepos active, f 55;
#X msg 349 211 button \$1;
#X msg 222 215 playhead \$1;
#X obj 486 397 list prepend notes;
#X obj 486 433 route list;
#X obj 594 87 canvasinfo;
#X msg 599 45 print;
#X obj 222 251 sl to-parent;
#X obj 351 251 sl to-parent;
#X obj 486 479 sl to-parent;
#X obj 95 35 rl to-parent;
#X obj 143 372 lvn.hyperstave 6;
#X obj 178 302 clip 0 1;
#X connect 1 0 4 1;
#X connect 4 0 10 0;
#X connect 5 0 13 0;
#X connect 8 0 12 0;
#X connect 8 0 22 0;
#X connect 9 0 11 0;
#X connect 10 0 2 0;
#X connect 10 1 8 0;
#X connect 10 2 9 0;
#X connect 11 0 18 0;
#X connect 12 0 17 0;
#X connect 13 0 14 0;
#X connect 14 0 19 0;
#X connect 16 0 15 0;
#X connect 20 0 4 0;
#X connect 22 0 21 0;
#X restore 274 588 pd stave0;
#X text 285 142 📈👇 map position (or other things) to hue, f
17;
#X obj 13 126 lvn.telemetry;
#X text 492 522 👈 note \, vel \, duration, f 22;
#X obj 471 589 pack f f;
#X obj 274 547 route 0 1, f 20;
#X text 274 617 👆 musical content in staves. subpatches linked internally
with lvn.stave-link., f 19;
#N canvas 14 32 676 734 stave1 0;
#X obj 218 40 inlet;
#X floatatom 39 184 5 0 0 0 - - -, f 5;
#X text 441 476 👆send note/velocity/duration can send note offs
to flush, f 29;
#X obj 41 83 lvn.stave-link, f 27;
#X msg 446 360 54 127 1000;
#X obj 445 398 cyclone/prepend notes;
#X obj 166 436 cyclone/prepend playhead;
#X text 274 41 👈 links with hyperstave, f 26;
#X text 26 244 distance 0 is on target 1 is on neighbouring stave 0.5
is borderline, f 24;
#X floatatom 166 191 5 0 0 0 - - -, f 5;
#X obj 293 189 tgl 15 0 empty empty empty 17 7 0 10 #fcfcfc #000000
#000000 1 1;
#X obj 39 135 route distance relativepos active, f 55;
#X obj 300 292 cyclone/prepend button;
#X obj 134 592 canvasinfo;
#X msg 134 555 print;
#X obj 166 481 sl to-parent;
#X obj 444 447 sl to-parent;
#X obj 300 337 sl to-parent;
#X obj 40 39 rl to-parent;
#X connect 0 0 3 1;
#X connect 3 0 11 0;
#X connect 4 0 5 0;
#X connect 5 0 16 0;
#X connect 6 0 15 0;
#X connect 9 0 6 0;
#X connect 10 0 12 0;
#X connect 11 0 1 0;
#X connect 11 1 9 0;
#X connect 11 2 10 0;
#X connect 12 0 17 0;
#X connect 14 0 13 0;
#X connect 18 0 3 0;
#X restore 349 587 pd stave1;
#X obj 435 35 r hues;
#X obj 435 101 print;
#X msg 472 212 connect;
#N canvas 544 239 450 301 banner 0;
#X obj 6 6 cnv 15 392 107 empty empty empty 20 12 0 14 #c0c0c0 #404040
0;
#X text 200 70 suite dependencies: cyclone;
#X text 200 90 example dependencies: ggee;
#X text 10 32 an n-dimensional dynamic music composition framework
, f 54;
#X obj 11 55 cnv 5 380 5 empty empty empty 20 12 0 14 #fcfcfc #404040
0;
#X obj 11 57 cnv 5 380 5 empty empty empty 20 12 0 14 #fc8080 #404040
0;
#X obj 17 19 cnv 3 80 3 empty \$0cvs0 -=ELEVON=- -2 -2 0 14 #fc9898
#000000 0;
#X coords 0 -1 1 1 400 115 2 2 2;
#X restore 13 7 pd banner;
#X obj 435 68 spigot;
#X obj 486 37 tgl 15 0 empty empty empty 17 7 0 10 #fcfcfc #000000
#000000 0 1;
#X text 538 212 👈 start coms with staves connect should send queries
down the tree to establish coords, f 14;
#X text 110 526 link with staves👉, f 22;
#X obj 284 271 lvn.hyperstave 12;
#X connect 0 0 1 0;
#X connect 1 0 20 0;
#X connect 2 0 8 0;
#X connect 2 1 8 1;
#X connect 8 0 3 0;
#X connect 9 0 4 0;
#X connect 9 1 11 0;
#X connect 12 0 16 0;
#X connect 14 0 20 1;
#X connect 16 0 13 0;
#X connect 17 0 16 1;
#X connect 20 0 9 0;
#X connect 20 1 2 0;
