#N canvas -7 0 611 786 12;
#X floatatom 163 217 15 0 0 0 - - -, f 15;
#X obj 163 242 / 100;
#X obj 350 510 makenote;
#X obj 350 578 print notes;
#N canvas 740 20 740 755 stave0 0;
#X obj 234 67 inlet;
#X floatatom 252 354 17 0 0 0 - - -, f 17;
#X floatatom 95 211 5 0 0 0 - - -, f 5;
#X text 497 503 👆send note/velocity/duration can send note offs
to flush, f 29;
#X obj 252 382 / 100;
#X obj 252 417 sub/fmod 1;
#X obj 97 110 lvn.stave-link, f 20;
#X msg 502 387 54 127 1000;
#X obj 501 425 cyclone/prepend notes;
#X obj 252 463 cyclone/prepend playhead;
#X text 290 68 👈 links with hyperstave, f 26;
#X text 82 271 distance 0 is on target 1 is on neighbouring stave 0.5
is borderline, f 24;
#X floatatom 222 218 5 0 0 0 - - -, f 5;
#X obj 349 216 tgl 15 0 empty empty empty 17 7 0 10 #fcfcfc #000000
#000000 0 1;
#X obj 95 162 route distance relativepos active, f 55;
#X obj 96 66 ggee/rl to-parent;
#X obj 252 508 ggee/sl to-parent;
#X obj 500 474 ggee/sl to-parent;
#X connect 0 0 6 1;
#X connect 1 0 4 0;
#X connect 4 0 5 0;
#X connect 5 0 9 0;
#X connect 6 0 14 0;
#X connect 7 0 8 0;
#X connect 8 0 17 0;
#X connect 9 0 16 0;
#X connect 12 0 9 0;
#X connect 14 0 2 0;
#X connect 14 1 12 0;
#X connect 14 2 13 0;
#X connect 15 0 6 0;
#X restore 163 569 pd stave0;
#X text 163 148 📈👇 map position (or other things) to hue, f
17;
#X obj 13 126 lvn.telemetry;
#X obj 163 279 lvn.hyperstave;
#X text 374 472 👈 note \, vel \, duration, f 22;
#X obj 350 542 pack f f;
#X obj 163 498 route 0 1;
#X text 163 598 👆 musical content in staves. subpatches linked internally
with lvn.stave-link., f 19;
#N canvas 788 24 690 714 stave1 0;
#X obj 178 40 inlet;
#X floatatom 196 327 17 0 0 0 - - -, f 17;
#X floatatom 39 184 5 0 0 0 - - -, f 5;
#X text 441 476 👆send note/velocity/duration can send note offs
to flush, f 29;
#X obj 196 355 / 100;
#X obj 196 390 sub/fmod 1;
#X obj 41 83 lvn.stave-link, f 20;
#X msg 446 360 54 127 1000;
#X obj 445 398 cyclone/prepend notes;
#X obj 196 436 cyclone/prepend playhead;
#X text 234 41 👈 links with hyperstave, f 26;
#X text 26 244 distance 0 is on target 1 is on neighbouring stave 0.5
is borderline, f 24;
#X floatatom 166 191 5 0 0 0 - - -, f 5;
#X obj 293 189 tgl 15 0 empty empty empty 17 7 0 10 #fcfcfc #000000
#000000 0 1;
#X obj 39 135 route distance relativepos active, f 55;
#X obj 40 39 ggee/rl to-parent;
#X obj 196 481 ggee/sl to-parent;
#X obj 444 447 ggee/sl to-parent;
#X connect 0 0 6 1;
#X connect 1 0 4 0;
#X connect 4 0 5 0;
#X connect 5 0 9 0;
#X connect 6 0 14 0;
#X connect 7 0 8 0;
#X connect 8 0 17 0;
#X connect 9 0 16 0;
#X connect 12 0 9 0;
#X connect 14 0 2 0;
#X connect 14 1 12 0;
#X connect 14 2 13 0;
#X connect 15 0 6 0;
#X restore 194 533 pd stave1;
#X obj 435 35 r hues;
#X obj 435 101 print;
#X msg 350 238 connect;
#N canvas 544 239 450 301 banner 0;
#X obj 6 6 cnv 15 392 107 empty empty empty 20 12 0 14 #c0c0c0 #404040
0;
#X text 200 70 suite dependencies: cyclone;
#X text 200 90 example dependencies: ggee;
#X text 10 32 an n-dimensional dynamic music composition framework
, f 54;
#X obj 11 55 cnv 5 380 5 empty empty empty 20 12 0 14 #fcfcfc #404040
0;
#X obj 11 57 cnv 5 380 5 empty empty empty 20 12 0 14 #fc8080 #404040
0;
#X obj 17 19 cnv 3 80 3 empty \$0cvs0 -=ELEVON=- -2 -2 0 14 #ff9999
#000000 0;
#X coords 0 -1 1 1 400 115 2 2 2;
#X restore 13 7 pd banner;
#X obj 435 68 spigot;
#X obj 486 37 tgl 15 0 empty empty empty 17 7 0 10 #fcfcfc #000000
#000000 0 1;
#X obj 333 289 tgl 15 0 empty empty empty 17 7 0 10 #ff8080 #000000
#000000 1 1;
#X text 415 237 👈 start coms with staves connect should send queries
down the tree to establish coords, f 14;
#X connect 0 0 1 0;
#X connect 1 0 7 0;
#X connect 2 0 9 0;
#X connect 2 1 9 1;
#X connect 7 0 10 0;
#X connect 7 1 2 0;
#X connect 9 0 3 0;
#X connect 10 0 4 0;
#X connect 10 1 12 0;
#X connect 13 0 17 0;
#X connect 15 0 7 1;
#X connect 17 0 14 0;
#X connect 18 0 17 1;
