#N canvas -7 0 768 778 12;
#X obj 1110 480 *~ 0.5;
#X obj 40 320 hsl 128 15 -1 1 0 1 \$0-from-pan \$0-to-pan pan -2 -8
0 10 #fcfcfc #000000 #000000 2850 1;
#X msg 540 490 0;
#X obj 40 290 hsl 128 15 0 1 0 1 \$0-from-amp \$0-to-amp amp -2 -8
0 10 #fcfcfc #000000 #000000 1150 1;
#X obj 180 320 bng 15 250 50 0 \$0-reset-pan empty empty 17 7 0 10
#fcfcfc #000000 #000000;
#X obj 180 290 tgl 15 1 \$0-from-mute \$0-to-mute empty 17 7 0 10 #fcfcfc
#000000 #000000 0 1;
#X obj 870 240 *~;
#X obj 890 146 t b f;
#X msg 890 178 1;
#X obj 890 210 -;
#X obj 870 70 inlet~;
#X obj 1150 440 r \$0-from-amp;
#X obj 540 520 s \$0-to-pan;
#X obj 540 460 r \$0-reset-pan;
#X obj 890 114 r \$0-from-mute;
#X obj 431 326 t b b;
#X obj 430 370 s \$0-to-mute;
#X obj 860 550 *~ 0.5;
#X obj 920 450 r \$0-from-amp;
#X obj 1042 236 *~;
#X obj 1062 142 t b f;
#X msg 1062 174 1;
#X obj 1062 206 -;
#X obj 1042 66 inlet~;
#X obj 1062 110 r \$0-from-mute;
#X obj 1120 160 r \$0-from-pan;
#X obj 901 281 r \$0-from-pan;
#X obj 1100 360 *~;
#X obj 1120 250 clip 0 1;
#X obj 1120 210 * -1;
#X obj 1120 280 - 1;
#X obj 1120 320 abs;
#X obj 860 440 *~;
#X obj 900 320 clip 0 1;
#X obj 900 350 - 1;
#X obj 900 390 abs;
#X obj 650 530 s \$0-to-amp;
#X msg 649 458 0.5;
#X obj 870 620 outlet~;
#X obj 1110 590 outlet~;
#X obj 930 500 pow 2;
#X obj 550 110 r \$0-from-mute;
#X obj 570 140 r \$0-from-amp;
#X obj 590 170 r \$0-from-pan;
#X obj 532 243 savestate, f 11;
#X text 622 243 👈 bangs when parent is saved;
#X obj 602 273 s \$0-save-state;
#X obj 532 83 r \$0-save-state;
#X obj 532 163 f;
#X obj 532 203 pack f f f;
#X obj 533 308 unpack f f f;
#X obj 530 400 s \$0-to-mute;
#X obj 570 370 s \$0-to-amp;
#X obj 610 340 s \$0-to-pan;
#X obj 500 280 t b l;
#X connect 0 0 39 0;
#X connect 2 0 12 0;
#X connect 6 0 32 0;
#X connect 7 0 8 0;
#X connect 7 1 9 1;
#X connect 8 0 9 0;
#X connect 9 0 6 1;
#X connect 10 0 6 0;
#X connect 11 0 0 1;
#X connect 13 0 2 0;
#X connect 14 0 7 0;
#X connect 15 0 16 0;
#X connect 15 1 16 0;
#X connect 17 0 38 0;
#X connect 18 0 40 0;
#X connect 19 0 27 0;
#X connect 20 0 21 0;
#X connect 20 1 22 1;
#X connect 21 0 22 0;
#X connect 22 0 19 1;
#X connect 23 0 19 0;
#X connect 24 0 20 0;
#X connect 25 0 29 0;
#X connect 26 0 33 0;
#X connect 27 0 0 0;
#X connect 28 0 30 0;
#X connect 29 0 28 0;
#X connect 30 0 31 0;
#X connect 31 0 27 1;
#X connect 32 0 17 0;
#X connect 33 0 34 0;
#X connect 34 0 35 0;
#X connect 35 0 32 1;
#X connect 37 0 36 0;
#X connect 40 0 17 1;
#X connect 41 0 48 1;
#X connect 42 0 49 1;
#X connect 43 0 49 2;
#X connect 44 0 54 0;
#X connect 44 1 46 0;
#X connect 47 0 48 0;
#X connect 48 0 49 0;
#X connect 49 0 44 0;
#X connect 50 0 51 0;
#X connect 50 1 52 0;
#X connect 50 2 53 0;
#X connect 54 0 15 0;
#X connect 54 1 50 0;
#X coords 0 -1 1 1 167 72 2 32 277;
