#N canvas 840 23 840 1005 10;
#X obj 100 400 cnv 15 159 60 empty empty empty 20 12 0 14 #e0e0e0 #404040
0;
#X msg 550 490 clear;
#X obj 550 525 s pd-dynamic-catch-\$0;
#X obj 280 780 bng 15 250 50 0 empty empty done 20 5 0 10 #fcfcfc #000000
#000000;
#X obj 280 400 r from-id-\$0;
#X obj 300 490 t b b s, f 34;
#N canvas 47 438 466 344 dynamic-catch-\$0 1;
#X restore 120 420 pd dynamic-catch-\$0;
#X obj 510 600 symbol;
#X obj 300 720 s pd-dynamic-catch-\$0;
#X obj 410 530 \$0;
#X obj 350 270 s from-id-\$0;
#X obj 170 180 r~ catch-internal-\$0;
#X msg 410 570 obj 50 250 s~ catch-internal-\$1, f 14;
#X text 440 290 lvn-localsignal-x7fcce6d2d9f0-hello;
#X msg 350 140 name;
#X obj 350 110 loadbang;
#X obj 410 110 bng 15 250 50 0 empty empty empty 17 7 0 10 #fcfcfc
#000000 #000000;
#X obj 350 170 canvasinfo 1;
#X obj 350 200 list append \$1;
#X msg 350 230 lvn-localsignal-\$1-\$2;
#X obj 280 430 t b s b, f 46;
#X msg 510 630 obj 50 200 catch~ \$1;
#X text 440 270 example created arg;
#X obj 170 220 outlet~;
#X msg 300 550 connect 0 0 1 0;
#X connect 1 0 2 0;
#X connect 4 0 20 0;
#X connect 5 0 24 0;
#X connect 5 1 9 0;
#X connect 5 2 7 0;
#X connect 7 0 21 0;
#X connect 9 0 12 0;
#X connect 11 0 23 0;
#X connect 12 0 8 0;
#X connect 14 0 17 0;
#X connect 15 0 14 0;
#X connect 16 0 14 0;
#X connect 17 0 18 0;
#X connect 18 0 19 0;
#X connect 19 0 10 0;
#X connect 20 0 3 0;
#X connect 20 1 5 0;
#X connect 20 2 1 0;
#X connect 21 0 8 0;
#X connect 24 0 8 0;
#X coords 0 0 1 1 210 60 0;
