#N canvas 0 0 1522 772 10;
#X obj 10 20 cnv 15 343 78 empty empty empty 20 12 0 14 #c0c0c0 #404040
0;
#X obj 509 33 cnv 15 844 354 empty empty empty 20 12 0 14 #e0e0e0 #404040
0;
#X obj 1758 30 cnv 15 811 690 empty empty empty 20 12 0 14 #e0e0e0
#404040 0;
#X obj 414 601 cnv 15 580 387 empty empty empty 20 12 0 14 #e0e0e0
#404040 0;
#X obj 180 577 cnv 15 95 34 empty empty empty 20 12 0 14 #ff80ff #404040
0;
#X obj 197 898 outlet;
#X obj 202 61 tgl 30 0 \$0-from-looptoggle \$0-to-looptoggle loop 3
12 0 10 #fcfcfc #000000 #000000 0 1;
#X obj 53 61 hsl 140 30 0 193 0 0 \$0-from-playslider \$0-playslider
empty -2 -8 0 10 #fcfcfc #000000 #000000 0 1;
#X obj 1407 86 r ticks;
#X obj 1407 142 spigot;
#X obj 20 61 tgl 30 0 \$0-playtoggle \$0-playtoggle play 3 12 0 10
#fcfcfc #000000 #000000 0 1;
#X obj 1438 118 r \$0-playtoggle;
#X obj 1516 227 counter, f 23;
#X obj 1516 311 s \$0-playslider;
#X floatatom 1516 285 5 0 0 0 - - -, f 5;
#X obj 1628 310 s \$0-playslider;
#X msg 1627 285 range 0 \$1;
#X obj 1627 262 r \$0-length;
#X obj 195 585 cyclone/seq;
#X obj 1859 72 r \$0-loadfile;
#X obj 1807 536 s \$0-to-seq;
#X obj 194 546 r \$0-to-seq;
#X obj 257 620 bng 15 250 50 0 empty empty empty 17 7 0 10 #fcfcfc
#000000 #000000;
#X obj 1875 386 s \$0-to-seq;
#X msg 1875 324 start -1;
#X obj 2276 514 counter;
#X floatatom 2443 635 14 0 0 0 - - -, f 14;
#X obj 1780 398 t b 0;
#X obj 1780 589 f, f 8;
#X text 3024 1534 hi;
#X obj 2443 670 s \$0-length;
#X obj 1859 108 t 1 b b b 0, f 99;
#X obj 223 809 midiparse;
#X msg 1407 237 tick;
#X obj 537 171 gate 2, f 14;
#X obj 537 134 + 1;
#X obj 555 253 s \$0-playtoggle;
#X msg 537 286 start -1;
#X obj 537 320 s \$0-to-seq;
#X obj 258 647 s \$0-endbang;
#X obj 1780 356 r \$0-endbang;
#X obj 567 134 r \$0-endbang;
#X obj 537 218 t b 0 b;
#X msg 1123 336 start -1;
#X obj 1112 357 s \$0-to-seq;
#X obj 1407 281 s \$0-to-seq;
#X obj 1407 182 t b b;
#X obj 1859 450 metro 1;
#X msg 1877 416 0;
#X obj 1857 476 t b b;
#X msg 1806 506 tick;
#X obj 2346 174 s \$0-playtoggle;
#X text 1478 48 playback and slider control 👇;
#X obj 205 844 gate;
#X obj 43 630 r \$0-loadfile;
#X msg 43 660 0;
#X obj 112 661 r \$0-endbang;
#X msg 112 694 1;
#X obj 1575 81 r \$0-to-seq;
#X obj 1574 114 route start;
#X msg 1575 171 0;
#X obj 1581 143 bng 15 250 50 0 empty empty empty 17 7 0 10 #fcfcfc
#000000 #000000;
#X msg 1655 196 99999;
#X obj 1127 80 r ticks;
#X obj 1127 138 i;
#X floatatom 243 75 5 0 0 2 duration #0-to-duration-n #0-from-duration-n
, f 5;
#X obj 1127 109 spigot;
#X obj 1127 196 change;
#X msg 2154 325 read assets/upsidedown.mid;
#X text 13 240 args: file duration(in beats \, sets loop to true) quantize
(ticks), f 47;
#X obj 22 291 inlet;
#X obj 80 290 bng 15 250 50 0 empty empty empty 17 7 0 10 #fcfcfc #000000
#000000;
#N canvas 36 76 1346 690 numbercruncher 0;
#X obj 95 72 inlet;
#X obj 142 288 loadbang;
#X obj 291 598 outlet;
#X text 689 273 Receives GOP values and sends them on again to the
saver;
#X obj 742 351 t b f;
#X msg 215 346 symbol flt;
#X msg 365 346 symbol flt;
#X obj 1012 354 t b f;
#X text 795 136 Sends creation argument list to the GOP objects;
#X obj 583 391 s \$0-store-args;
#X obj 24 346 r \$0-store-args;
#X obj 719 387 s \$0-store-args;
#X obj 884 391 s \$0-store-args;
#X obj 998 387 s \$0-store-args;
#X text 272 32 args: file duration(in beats \, sets loop to true) quantize
(ticks), f 70;
#X msg 140 346 symbol sym;
#X obj 606 350 t b s;
#X obj 139 200 s \$0-to-filepath;
#X obj 606 321 r \$0-from-filepath;
#X obj 886 292 r \$0-from-quantize-n;
#X obj 970 316 r \$0-from-quantize-unit;
#X obj 898 349 t b f;
#X obj 95 106 unpack s s s f s f s f s f, f 71;
#X obj 328 214 s \$0-to-quantize-n;
#X obj 377 157 s \$0-to-quantize-unit;
#X msg 290 346 symbol flt;
#X obj 742 300 r \$0-from-duration-n;
#X obj 198 162 s \$0-to-duration-n;
#X obj 557 173 s \$0-to-duration-unit;
#X obj 1174 354 t b f;
#X obj 1160 387 s \$0-store-args;
#X obj 1132 316 r \$0-from-duration-unit;
#X obj 291 560 pack s s s f s f s f s f, f 68;
#X obj 142 313 t b b b b b, f 47;
#X msg 444 342 symbol flt;
#X connect 0 0 22 0;
#X connect 1 0 33 0;
#X connect 4 0 11 0;
#X connect 4 1 32 3;
#X connect 5 0 32 2;
#X connect 6 0 32 6;
#X connect 7 0 13 0;
#X connect 7 1 32 7;
#X connect 10 0 32 0;
#X connect 15 0 32 0;
#X connect 16 0 9 0;
#X connect 16 1 32 1;
#X connect 18 0 16 0;
#X connect 19 0 21 0;
#X connect 20 0 7 0;
#X connect 21 0 12 0;
#X connect 21 1 32 5;
#X connect 22 1 17 0;
#X connect 22 3 27 0;
#X connect 22 5 23 0;
#X connect 22 7 24 0;
#X connect 22 9 28 0;
#X connect 25 0 32 4;
#X connect 26 0 4 0;
#X connect 29 0 30 0;
#X connect 29 1 32 9;
#X connect 31 0 29 0;
#X connect 32 0 2 0;
#X connect 33 0 15 0;
#X connect 33 1 5 0;
#X connect 33 2 25 0;
#X connect 33 3 6 0;
#X connect 33 4 34 0;
#X connect 34 0 32 8;
#X restore 543 788 pd numbercruncher;
#X obj 543 909 iemguts/canvasargs;
#X obj 543 709 iemguts/canvasargs;
#X obj 450 619 loadbang;
#X obj 543 757 list trim;
#X obj 543 734 list;
#X obj 450 663 t b b, f 16;
#X msg 450 746 1;
#X obj 543 864 spigot;
#X text 543 934 v1.3 \, 2015 Liam Goodacre \, liam.goodacre@gmail.com
;
#X text 584 857 This spigot is necessary because if one [canvasargs]
object feeds the creation argument straight into another it will cause
PD to crash.;
#X symbolatom 20 40 29 0 0 2 filepath #0-to-filepath #0-from-filepath
, f 29;
#X obj 2011 142 r \$0-from-filepath;
#X obj 2033 269 list trim;
#X obj 2008 188 t b s;
#X obj 2006 314 s \$0-loadfile;
#X obj 1980 265 bng 15 250 50 0 empty empty empty 17 7 0 10 #fcfcfc
#000000 #000000;
#X obj 2033 221 list prepend set read, f 12;
#X text 2077 36 📂 FILE LOADING 👇;
#X floatatom 255 219 5 0 0 2 quantize #0-to-quantize-n #0-from-quantize-n
, f 5;
#X obj 291 220 hsl 64 15 0 5 0 0 \$0-from-quantize-unit \$0-to-quantize-unit
bars 6 6 0 10 #fcfcfc #000000 #808080 6300 1;
#X obj 942 148 r \$0-from-quantize-unit;
#X obj 942 294 s \$0-to-quantize-unit;
#X obj 537 101 r \$0-from-looptoggle;
#X obj 1195 79 r \$0-from-looptoggle;
#X obj 279 76 hsl 64 15 0 5 0 0 \$0-from-duration-unit \$0-to-duration-unit
bars 6 6 0 10 #fcfcfc #000000 #808080 6300 1;
#X obj 740 146 r \$0-from-duration-unit;
#X obj 740 288 s \$0-to-duration-unit;
#X text 610 611 🎰 argument handling 👇;
#X obj 958 182 r \$0-from-quantize-n;
#X obj 958 260 s %0-quantize-ticks;
#X obj 942 225 sub/tick-calculator;
#X obj 740 218 sub/tick-calculator;
#X obj 759 181 r \$0-from-duration-n;
#X obj 759 254 s \$0-duration-ticks;
#X obj 944 318 r %0-quantize-ticks;
#X obj 1166 135 r \$0-duration-ticks;
#X obj 1127 225 sel 0;
#X obj 1127 167 %;
#X obj 1127 254 s \$0-start;
#X obj 1128 278 r \$0-start;
#X text 1092 53 ⏰ RETRIGGER OFF OF TICKS % DURATION👇;
#X text 545 64 Stop if not looping 👇;
#X obj 92 434 s \$0-start;
#X obj 173 394 s \$0-playtoggle;
#X msg 175 363 0;
#X obj 16 494 s \$0-to-filepath;
#X obj 69 462 s \$0-to-looptoggle;
#X obj 106 374 t b 1;
#X obj 22 328 route read loop bang start stop;
#X msg 20 431 set \$1;
#X obj 12 357 t b s;
#X obj 210 778 cyclone/midiflush;
#X obj 310 509 r \$0-playtoggle;
#X obj 310 534 sel 0;
#X obj 304 584 s \$0-flush;
#X obj 236 741 r \$0-flush;
#X obj 40 737 s \$0-flush;
#X obj 37 707 bng 15 250 50 0 empty empty empty 17 7 0 10 #fcfcfc #000000
#000000;
#X obj 1148 322 s \$0-flush;
#X obj 1125 302 t b b;
#X obj 268 392 s \$0-to-looptoggle;
#X connect 8 0 9 0;
#X connect 9 0 46 0;
#X connect 11 0 9 1;
#X connect 12 0 14 0;
#X connect 14 0 13 0;
#X connect 16 0 15 0;
#X connect 17 0 16 0;
#X connect 18 0 124 0;
#X connect 18 1 22 0;
#X connect 19 0 31 0;
#X connect 21 0 18 0;
#X connect 22 0 39 0;
#X connect 24 0 23 0;
#X connect 25 0 28 1;
#X connect 26 0 30 0;
#X connect 27 0 28 0;
#X connect 27 1 47 0;
#X connect 28 0 26 0;
#X connect 31 0 47 0;
#X connect 31 1 24 0;
#X connect 31 2 68 0;
#X connect 31 3 25 2;
#X connect 31 4 26 0;
#X connect 31 4 51 0;
#X connect 32 0 53 1;
#X connect 33 0 45 0;
#X connect 34 0 42 0;
#X connect 35 0 34 0;
#X connect 37 0 38 0;
#X connect 40 0 27 0;
#X connect 41 0 34 1;
#X connect 42 0 37 0;
#X connect 42 1 36 0;
#X connect 43 0 44 0;
#X connect 46 0 33 0;
#X connect 46 1 12 0;
#X connect 47 0 49 0;
#X connect 48 0 47 0;
#X connect 49 0 50 0;
#X connect 49 1 25 0;
#X connect 50 0 20 0;
#X connect 53 0 5 0;
#X connect 54 0 55 0;
#X connect 55 0 53 0;
#X connect 55 0 130 0;
#X connect 56 0 57 0;
#X connect 57 0 53 0;
#X connect 58 0 59 0;
#X connect 59 0 61 0;
#X connect 60 0 12 2;
#X connect 61 0 60 0;
#X connect 62 0 12 4;
#X connect 63 0 66 0;
#X connect 64 0 110 0;
#X connect 66 0 64 0;
#X connect 67 0 109 0;
#X connect 68 0 23 0;
#X connect 70 0 121 0;
#X connect 71 0 121 0;
#X connect 72 0 80 0;
#X connect 74 0 77 0;
#X connect 75 0 78 0;
#X connect 76 0 72 0;
#X connect 77 0 76 0;
#X connect 78 0 79 0;
#X connect 78 1 74 0;
#X connect 79 0 80 1;
#X connect 80 0 73 0;
#X connect 84 0 86 0;
#X connect 85 0 68 0;
#X connect 86 0 87 0;
#X connect 86 1 89 0;
#X connect 88 0 87 0;
#X connect 89 0 85 0;
#X connect 93 0 103 0;
#X connect 95 0 35 0;
#X connect 96 0 66 1;
#X connect 98 0 104 0;
#X connect 101 0 103 1;
#X connect 103 0 94 0;
#X connect 103 1 102 0;
#X connect 104 0 99 0;
#X connect 104 1 106 0;
#X connect 105 0 104 1;
#X connect 108 0 110 1;
#X connect 109 0 111 0;
#X connect 110 0 67 0;
#X connect 112 0 132 0;
#X connect 117 0 116 0;
#X connect 117 0 133 0;
#X connect 120 0 115 0;
#X connect 120 1 116 0;
#X connect 121 0 123 0;
#X connect 121 1 119 0;
#X connect 121 2 120 0;
#X connect 121 3 120 0;
#X connect 121 4 117 0;
#X connect 122 0 118 0;
#X connect 123 0 118 0;
#X connect 123 1 122 0;
#X connect 124 0 32 0;
#X connect 125 0 126 0;
#X connect 126 0 127 0;
#X connect 128 0 124 0;
#X connect 130 0 129 0;
#X connect 132 0 43 0;
#X connect 132 1 131 0;
#X coords 0 -1 1 1 348 82 2 8 18;
