#N canvas 672 8 788 782 10;
#X obj 55 400 s;
#X msg 75 349 symbol \$1notes;
#X obj 424 117 s \$0id;
#X obj 513 117 s \$0stave;
#X obj 76 314 r \$0id;
#X obj 199 142 r \$0stave;
#X obj 154 119 r \$0id;
#X obj 603 117 s \$0ready;
#X obj 132 91 r \$0ready;
#X obj 115 283 s;
#X obj 424 26 inlet h-stave, f 7;
#X obj 452 366 -;
#X obj 510 273 r \$0stave;
#X obj 431 695 outlet distance;
#X obj 452 478 abs;
#X obj 444 304 * 8;
#X text 374 302 num staves;
#X obj 452 418 expr if($f1 > $f2/2 \, $f1 - $f2 \, $f1), f 22;
#X msg 580 378 8;
#X obj 578 323 loadbang;
#X text 616 384 num staves;
#X obj 132 188 pack f f f;
#X obj 510 311 + 0.5;
#X text 165 280 👈forwards normalised float to stave position indicator
, f 22;
#X text 106 393 👈forwards note tuples (note \, velocity \, duration)
to hyperstave note out, f 34;
#X text 619 519 👈distance from center of stave 0 is centred on stave
\, 0.5 is the boundary to the next stave. 5 is over the centre of the
5th stave away., f 27;
#X msg 133 219 symbol \$2playhead\$3;
#X obj 27 10 inlet messages, f 26;
#X obj 55 48 route notes playhead;
#X obj 449 523 cyclone/prepend distance;
#X obj 445 273 r \$0hue;
#X obj 447 558 s \$0outlet;
#X obj 432 665 r \$0outlet;
#X obj 1026 288 r \$0stave;
#X obj 960 349 * 8;
#X text 890 317 num staves;
#X obj 961 288 r \$0hue;
#X obj 968 717 s \$0outlet;
#X obj 968 381 -;
#X obj 968 654 cyclone/prepend relativepos;
#X obj 1156 630 cyclone/prepend active;
#X obj 1156 664 s \$0outlet;
#X obj 1202 554 <= 1;
#X obj 1156 554 >= 0;
#X obj 1156 592 *;
#X obj 1156 502 t f f;
#X obj 886 569 expr if($f1 > $f2/2 \, $f1 - $f2 \, $f1), f 22;
#X msg 1014 529 8;
#X obj 1012 474 loadbang;
#X obj 838 61 r \$0id;
#X obj 425 79 route id stave ready, f 45;
#X text 486 29 👈receive id \, stave-num and hue from hyperstave
👉;
#X obj 805 97 route;
#X obj 805 29 r hues;
#X obj 805 165 s \$0hue;
#X connect 1 0 0 1;
#X connect 4 0 1 0;
#X connect 5 0 21 2;
#X connect 6 0 21 1;
#X connect 8 0 21 0;
#X connect 10 0 50 0;
#X connect 11 0 17 0;
#X connect 12 0 22 0;
#X connect 14 0 29 0;
#X connect 15 0 11 0;
#X connect 17 0 14 0;
#X connect 18 0 17 1;
#X connect 19 0 18 0;
#X connect 21 0 26 0;
#X connect 22 0 11 1;
#X connect 26 0 9 1;
#X connect 27 0 28 0;
#X connect 28 0 0 0;
#X connect 28 1 9 0;
#X connect 29 0 31 0;
#X connect 30 0 15 0;
#X connect 32 0 13 0;
#X connect 33 0 38 1;
#X connect 34 0 38 0;
#X connect 36 0 34 0;
#X connect 38 0 45 0;
#X connect 38 0 46 0;
#X connect 39 0 37 0;
#X connect 40 0 41 0;
#X connect 42 0 44 1;
#X connect 43 0 44 0;
#X connect 44 0 40 0;
#X connect 45 0 43 0;
#X connect 45 1 42 0;
#X connect 46 0 39 0;
#X connect 47 0 46 1;
#X connect 48 0 47 0;
#X connect 49 0 52 1;
#X connect 50 0 2 0;
#X connect 50 1 3 0;
#X connect 50 2 7 0;
#X connect 52 0 54 0;
#X connect 53 0 52 0;
