#N canvas 542 142 821 511 10;
#X obj 269 180 seq, f 11;
#X msg 523 169 read assets/beat.mid;
#X obj 259 21 r ticks;
#X msg 266 67 tick;
#X msg 361 80 start -1;
#X obj 362 -11 r bars;
#X obj 361 33 sel 0;
#X obj 531 -33 r play;
#X obj 526 2 sel 1 0;
#X msg 542 76 stop;
#X obj 527 132 loadbang;
#X obj 333 246 spigot;
#X obj 542 102 s \$0-toseq;
#X obj 361 105 s \$0-toseq;
#X obj 266 92 s \$0-toseq;
#X obj 523 194 s \$0-toseq;
#X obj 272 145 r \$0-toseq;
#X obj 280 288 outlet;
#X obj 155 -21 tgl 15 0 \$0-looptoggle empty 🔄 15 5 0 15 #fcfcfc
#000000 #000000 0 1;
#X obj 340 295 s \$0-endbang;
#X obj 408 35 r \$0-endbang;
#X obj 354 211 r \$0-looptoggle;
#X obj 17 -33 hsl 127 42 0 1 0 0 empty empty empty -2 -8 0 10 #fcfcfc
#000000 #000000 0 1;
#X connect 0 0 17 0;
#X connect 0 1 11 0;
#X connect 1 0 15 0;
#X connect 2 0 3 0;
#X connect 3 0 14 0;
#X connect 4 0 13 0;
#X connect 5 0 6 0;
#X connect 6 0 4 0;
#X connect 7 0 8 0;
#X connect 8 1 9 0;
#X connect 9 0 12 0;
#X connect 10 0 1 0;
#X connect 11 0 19 0;
#X connect 16 0 0 0;
#X connect 20 0 4 0;
#X connect 21 0 11 1;
#X coords 0 -1 1 1 182 60 1 12 -44;
