#N canvas -8 -8 1554 795 10;
#X obj 1758 30 cnv 15 811 690 empty empty empty 20 12 0 14 #e0e0e0
#404040 0;
#X obj 324 811 cnv 15 580 387 empty empty empty 20 12 0 14 #e0e0e0
#404040 0;
#X obj 180 417 cnv 15 95 34 empty empty empty 20 12 0 14 #ff80ff #404040
0;
#X obj 153 641 outlet;
#X obj 166 124 tgl 15 0 \$0-looptoggle empty loop 17 5 0 10 #fcfcfc
#000000 #000000 0 1;
#X obj 22 159 hsl 127 16 0 86 0 0 \$0-from-playslider \$0-playslider
empty -2 -8 0 10 #fcfcfc #000000 #000000 0 1;
#X obj 1217 86 r ticks;
#X obj 1217 142 spigot;
#X obj 166 141 tgl 15 0 \$0-playtoggle \$0-playtoggle play 17 5 0 10
#fcfcfc #000000 #000000 0 1;
#X obj 1248 118 r \$0-playtoggle;
#X obj 1326 227 counter, f 23;
#X obj 1326 311 s \$0-playslider;
#X floatatom 1326 285 5 0 0 0 - - -, f 5;
#X obj 1438 310 s \$0-playslider;
#X msg 1437 285 range 0 \$1;
#X obj 1437 262 r \$0-length;
#X obj 195 425 cyclone/seq;
#X obj 1859 72 r \$0-loadfile;
#X obj 1807 536 s \$0-to-seq;
#X obj 194 386 r \$0-to-seq;
#X obj 257 460 bng 15 250 50 0 empty empty empty 17 7 0 10 #fcfcfc
#000000 #000000;
#X obj 1875 386 s \$0-to-seq;
#X msg 1875 324 start -1;
#X obj 2276 514 counter;
#X floatatom 2443 635 14 0 0 0 - - -, f 14;
#X obj 1780 398 t b 0;
#X obj 1780 589 f, f 8;
#X text 3024 1534 hi;
#X obj 2443 670 s \$0-length;
#X obj 1859 108 t 1 b b b 0, f 99;
#X obj 196 516 midiparse;
#X msg 1217 237 tick;
#X obj 439 144 r \$0-looptoggle;
#X obj 439 210 gate 2, f 21;
#X obj 439 177 + 1;
#X obj 462 296 s \$0-playtoggle;
#X msg 442 329 start -1;
#X obj 440 363 s \$0-to-seq;
#X obj 258 487 s \$0-endbang;
#X obj 1780 356 r \$0-endbang;
#X obj 558 179 r \$0-endbang;
#X obj 440 261 t b 0 b;
#X msg 830 427 start -1;
#X obj 830 465 s \$0-to-seq;
#X obj 1217 281 s \$0-to-seq;
#X obj 1217 182 t b b;
#X obj 1859 450 metro 1;
#X msg 1877 416 0;
#X obj 1857 476 t b b;
#X msg 1806 506 tick;
#X obj 2346 174 s \$0-playtoggle;
#X text 1288 48 playback and slider control 👇;
#X text 447 107 loop control 👇;
#X obj 153 605 gate;
#X obj 39 474 r \$0-loadfile;
#X msg 39 504 0;
#X obj 112 501 r \$0-endbang;
#X msg 112 534 1;
#X obj 1385 81 r \$0-to-seq;
#X obj 1384 114 route start;
#X msg 1385 171 0;
#X obj 1391 143 bng 15 250 50 0 empty empty empty 17 7 0 10 #fcfcfc
#000000 #000000;
#X msg 1465 196 99999;
#X obj 817 150 r ticks;
#X obj 849 212 / 24;
#X obj 849 262 i;
#X obj 844 321 % 4;
#X floatatom 217 125 5 0 0 1 duration #0-to-duration #0-from-duration
, f 5;
#X obj 879 147 r \$0-looptoggle;
#X obj 843 183 spigot;
#X obj 830 394 sel 1;
#X obj 833 354 change;
#X msg 2154 325 read assets/beat.mid;
#X text 15 204 args: file duration(in beats \, sets loop to true) quantize
(ticks), f 47;
#X obj 22 291 inlet;
#X obj 80 290 bng 15 250 50 0 empty empty empty 17 7 0 10 #fcfcfc #000000
#000000;
#X obj 22 328 route read duration loop quantize bang stop;
#X text 828 105 quantize 👇;
#N canvas 324 113 1213 653 numbercruncher 0;
#X obj 95 72 inlet;
#X obj 142 288 loadbang;
#X obj 291 598 outlet;
#X text 689 273 Receives GOP values and sends them on again to the
saver;
#X obj 742 351 t b f;
#X msg 215 346 symbol flt;
#X obj 337 168 s \$0macr;
#X obj 898 320 r \$0macs;
#X msg 290 346 symbol sym;
#X obj 898 349 t b s;
#X msg 365 346 symbol flt;
#X obj 1012 354 t b f;
#X obj 425 164 s \$0ceilingr;
#X obj 1012 325 r \$0ceilings;
#X obj 527 165 s \$0usbr;
#X obj 1107 352 t b f;
#X obj 1107 323 r \$0usbs;
#X msg 440 346 symbol flt;
#X obj 142 313 t b b b b b, f 47;
#X text 615 166 Sends creation argument list to the GOP objects;
#X obj 583 391 s \$0-store-args;
#X obj 24 346 r \$0-store-args;
#X obj 719 387 s \$0-store-args;
#X obj 884 391 s \$0-store-args;
#X obj 998 387 s \$0-store-args;
#X obj 1108 383 s \$0-store-args;
#X text 272 32 args: file duration(in beats \, sets loop to true) quantize
(ticks), f 70;
#X obj 95 106 unpack s s s f s s s f s f, f 71;
#X obj 104 500 bng 15 250 50 0 empty empty empty 17 7 0 10 #fcfcfc
#000000 #000000;
#X obj 104 580 print;
#X msg 140 346 symbol sym;
#X obj 291 560 pack s s s f s s s f s f, f 37;
#X obj 606 350 t b s;
#X obj 139 200 s \$0-to-filepath;
#X obj 606 321 r \$0-from-filepath;
#X obj 198 163 s \$0-to-duration;
#X obj 742 300 r \$0-from-duration;
#X connect 0 0 27 0;
#X connect 1 0 18 0;
#X connect 4 0 22 0;
#X connect 4 1 31 3;
#X connect 5 0 31 2;
#X connect 7 0 9 0;
#X connect 8 0 31 4;
#X connect 9 0 23 0;
#X connect 9 1 31 5;
#X connect 10 0 31 6;
#X connect 11 0 24 0;
#X connect 11 1 31 7;
#X connect 13 0 11 0;
#X connect 15 0 25 0;
#X connect 15 1 31 9;
#X connect 16 0 15 0;
#X connect 17 0 31 8;
#X connect 18 0 30 0;
#X connect 18 1 5 0;
#X connect 18 2 8 0;
#X connect 18 3 10 0;
#X connect 18 4 17 0;
#X connect 21 0 31 0;
#X connect 27 1 33 0;
#X connect 27 3 35 0;
#X connect 27 5 6 0;
#X connect 27 7 12 0;
#X connect 27 9 14 0;
#X connect 28 0 31 0;
#X connect 30 0 31 0;
#X connect 31 0 2 0;
#X connect 31 0 29 0;
#X connect 32 0 20 0;
#X connect 32 1 31 1;
#X connect 34 0 32 0;
#X connect 36 0 4 0;
#X restore 453 998 pd numbercruncher;
#X obj 453 1119 iemguts/canvasargs;
#X obj 453 919 iemguts/canvasargs;
#X obj 360 829 loadbang;
#X obj 453 967 list trim;
#X obj 453 944 list;
#X obj 360 873 t b b, f 16;
#X msg 360 956 1;
#X obj 453 1074 spigot;
#X text 453 1144 v1.3 \, 2015 Liam Goodacre \, liam.goodacre@gmail.com
;
#X text 494 1067 This spigot is necessary because if one [canvasargs]
object feeds the creation argument straight into another it will cause
PD to crash.;
#X symbolatom 22 130 22 0 0 2 filepath #0-to-filepath #0-from-filepath
, f 22;
#X obj 2011 142 r \$0-from-filepath;
#X obj 2033 269 list trim;
#X obj 2008 188 t b s;
#X obj 2006 314 s \$0-loadfile;
#X obj 1980 265 bng 15 250 50 0 empty empty empty 17 7 0 10 #fcfcfc
#000000 #000000;
#X obj 2033 221 list prepend set read, f 12;
#X text 2077 36 📂 FILE LOADING 👇;
#X obj 860 288 r \$0-from-duration;
#X connect 6 0 7 0;
#X connect 7 0 45 0;
#X connect 9 0 7 1;
#X connect 10 0 12 0;
#X connect 12 0 11 0;
#X connect 14 0 13 0;
#X connect 15 0 14 0;
#X connect 16 0 30 0;
#X connect 16 1 20 0;
#X connect 17 0 29 0;
#X connect 19 0 16 0;
#X connect 20 0 38 0;
#X connect 22 0 21 0;
#X connect 23 0 26 1;
#X connect 24 0 28 0;
#X connect 25 0 26 0;
#X connect 25 1 46 0;
#X connect 26 0 24 0;
#X connect 29 0 46 0;
#X connect 29 1 22 0;
#X connect 29 2 72 0;
#X connect 29 3 23 2;
#X connect 29 4 24 0;
#X connect 29 4 50 0;
#X connect 30 0 53 1;
#X connect 31 0 44 0;
#X connect 32 0 34 0;
#X connect 33 0 41 0;
#X connect 34 0 33 0;
#X connect 36 0 37 0;
#X connect 39 0 25 0;
#X connect 40 0 33 1;
#X connect 41 0 36 0;
#X connect 41 1 35 0;
#X connect 42 0 43 0;
#X connect 45 0 31 0;
#X connect 45 1 10 0;
#X connect 46 0 48 0;
#X connect 47 0 46 0;
#X connect 48 0 49 0;
#X connect 48 1 23 0;
#X connect 49 0 18 0;
#X connect 53 0 3 0;
#X connect 54 0 55 0;
#X connect 55 0 53 0;
#X connect 56 0 57 0;
#X connect 57 0 53 0;
#X connect 58 0 59 0;
#X connect 59 0 61 0;
#X connect 60 0 10 2;
#X connect 61 0 60 0;
#X connect 62 0 10 4;
#X connect 63 0 69 0;
#X connect 64 0 65 0;
#X connect 65 0 66 0;
#X connect 66 0 71 0;
#X connect 68 0 69 1;
#X connect 69 0 64 0;
#X connect 70 0 42 0;
#X connect 71 0 70 0;
#X connect 72 0 21 0;
#X connect 74 0 76 0;
#X connect 75 0 76 0;
#X connect 78 0 86 0;
#X connect 80 0 83 0;
#X connect 81 0 84 0;
#X connect 82 0 78 0;
#X connect 83 0 82 0;
#X connect 84 0 85 0;
#X connect 84 1 80 0;
#X connect 85 0 86 1;
#X connect 86 0 79 0;
#X connect 90 0 92 0;
#X connect 91 0 72 0;
#X connect 92 0 93 0;
#X connect 92 1 95 0;
#X connect 94 0 93 0;
#X connect 95 0 91 0;
#X connect 97 0 66 1;
#X coords 0 -1 1 1 302 96 2 13 102;
