#N canvas 0 0 1538 780 10;
#X obj 12 14 cnv 15 190 608 empty \$0bg empty 10 10 0 14 #c0c0c0 #fcfcfc
0;
#X obj 38 138 cnv 15 160 19 empty \$0highlight-cnv empty 20 12 0 14
#f0f0f0 #000000 0;
#X text 219 18 40 20;
#X text 219 43 40 40;
#X text 259 17 180 20;
#X text 1533 1614 \$0playhead0;
#X text 1179 1616 \$0button0;
#X msg 1148 1597 list $ 0button \$1;
#X obj 1525 1640 list prepend;
#X obj 1641 1594 expr $f1 * 20 + 20;
#X obj 1167 1642 list prepend;
#X obj 1265 1597 expr $f1 * 20 + 20;
#X obj 1430 1390 uzi;
#X obj 1364 1425 counter;
#X obj 1149 1185 bng 15 250 50 0 empty empty empty 17 7 0 10 #fcfcfc
#000000 #000000;
#X obj 1384 1349 t b b;
#X msg 1365 1383 goto 0;
#X obj 691 1641 s to\$0hue;
#X msg 691 1606 size 15 \$1;
#X obj 1146 1230 f;
#X obj 1211 1223 s \$0numstaves;
#X text 668 1666 set height of hue slider;
#X text 1170 1746 make buttons;
#X obj 554 443 sub/rainbowmaker;
#X obj 691 1572 expr $f1 * 20 - 6;
#X obj 568 372 r \$0numstaves;
#X obj 554 406 /;
#X obj 554 331 t f f, f 19;
#X text 1240 1877 #X obj [x_pos]? [y_pos]? hsl [width]? [height]? [bottom]?
[top]? [log]? [init]? [send]? [receive]? [label]? [x_off]? [y_off]?
[font]? [fontsize]? [bg_color]? [fg_color]? [label_color]? [default_value]?
[steady_on_click]? \; rn, f 76;
#X msg 1512 1593 list $ 0playhead \$1;
#X obj 667 265 uzi;
#X obj 554 300 counter;
#X obj 552 121 bng 15 250 50 0 empty empty empty 17 7 0 10 #fcfcfc
#000000 #000000;
#X obj 554 224 t b b;
#X msg 554 258 goto 0;
#X obj 552 158 f;
#X obj 584 100 r \$0numstaves;
#X obj 552 191 t b f, f 33;
#X obj 1127 1041 loadbang;
#X obj 543 1645 pack f f;
#X text 499 1880 [donecanvasdialog <x-units> <y-units> <gop> <x-from>
<y-from> <x-to> <y-to> <x-size> <y-size> <x-margin> <y-margin>(;
#X obj 546 1595 t 1 f 0;
#X text 701 1775 set gop size;
#X obj 544 1556 expr $f1 * 20 + 16;
#X obj 662 1467 t f f f;
#X obj 881 1679 s \$0bg;
#X msg 877 1632 vis_size 190 \$1;
#X obj 829 1578 expr $f1 * 20 + 8;
#X text 854 1717 set bg canvas size;
#X obj 1186 1178 t f f;
#N canvas 269 294 635 584 \$0-gui 0;
#X obj 150 -100 r 1102-playheads;
#X obj 300 -150 r 1102-buttons;
#X obj 150 -50 route 0 1 2 3 4 5 6 7 8 9 10 11 12 13 14 15 16 17 18
19 20 21 22 23 24 25 26 27 28 29;
#X obj 300 -100 route 0 1 2 3 4 5 6 7 8 9 10 11 12 13 14 15 16 17 18
19 20 21 22 23 24 25 26 27 28 29;
#X obj 40 20 hsl 128 15 0 127 0 0 empty empty empty -2 -8 0 10 #ff9999
#000000 #000000 0 1;
#X obj 180 20 tgl 15 0 50 empty empty 17 7 0 10 #ff9999 #000000 #000000
0 1;
#X obj 40 40 hsl 128 15 0 127 0 0 empty empty empty -2 -8 0 10 #ffad99
#000000 #000000 0 1;
#X obj 180 40 tgl 15 0 50 empty empty 17 7 0 10 #ffad99 #000000 #000000
0 1;
#X obj 40 60 hsl 128 15 0 127 0 0 empty empty empty -2 -8 0 10 #ffc199
#000000 #000000 0 1;
#X obj 180 60 tgl 15 0 50 empty empty 17 7 0 10 #ffc199 #000000 #000000
0 1;
#X obj 40 80 hsl 128 15 0 127 0 0 empty empty empty -2 -8 0 10 #ffd699
#000000 #000000 0 1;
#X obj 180 80 tgl 15 0 50 empty empty 17 7 0 10 #ffd699 #000000 #000000
0 1;
#X obj 40 100 hsl 128 15 0 127 0 0 empty empty empty -2 -8 0 10 #ffea99
#000000 #000000 0 1;
#X obj 180 100 tgl 15 0 50 empty empty 17 7 0 10 #ffea99 #000000 #000000
0 1;
#X obj 40 120 hsl 128 15 0 127 0 0 empty empty empty -2 -8 0 10 #ffff99
#000000 #000000 0 1;
#X obj 180 120 tgl 15 0 50 empty empty 17 7 0 10 #ffff99 #000000 #000000
0 1;
#X obj 40 140 hsl 128 15 0 127 0 0 empty empty empty -2 -8 0 10 #eaff99
#000000 #000000 0 1;
#X obj 180 140 tgl 15 0 50 empty empty 17 7 0 10 #eaff99 #000000 #000000
0 1;
#X obj 40 160 hsl 128 15 0 127 0 0 empty empty empty -2 -8 0 10 #d6ff99
#000000 #000000 0 1;
#X obj 180 160 tgl 15 0 50 empty empty 17 7 0 10 #d6ff99 #000000 #000000
0 1;
#X obj 40 180 hsl 128 15 0 127 0 0 empty empty empty -2 -8 0 10 #c1ff99
#000000 #000000 0 1;
#X obj 180 180 tgl 15 0 50 empty empty 17 7 0 10 #c1ff99 #000000 #000000
0 1;
#X obj 40 200 hsl 128 15 0 127 0 0 empty empty empty -2 -8 0 10 #adff99
#000000 #000000 0 1;
#X obj 180 200 tgl 15 0 50 empty empty 17 7 0 10 #adff99 #000000 #000000
0 1;
#X obj 40 220 hsl 128 15 0 127 0 0 empty empty empty -2 -8 0 10 #99ff99
#000000 #000000 0 1;
#X obj 180 220 tgl 15 0 50 empty empty 17 7 0 10 #99ff99 #000000 #000000
0 1;
#X obj 40 240 hsl 128 15 0 127 0 0 empty empty empty -2 -8 0 10 #99ffad
#000000 #000000 0 1;
#X obj 180 240 tgl 15 0 50 empty empty 17 7 0 10 #99ffad #000000 #000000
0 1;
#X obj 40 260 hsl 128 15 0 127 0 0 empty empty empty -2 -8 0 10 #99ffc1
#000000 #000000 0 1;
#X obj 180 260 tgl 15 0 50 empty empty 17 7 0 10 #99ffc1 #000000 #000000
0 1;
#X obj 40 280 hsl 128 15 0 127 0 0 empty empty empty -2 -8 0 10 #99ffd6
#000000 #000000 0 1;
#X obj 180 280 tgl 15 0 50 empty empty 17 7 0 10 #99ffd6 #000000 #000000
0 1;
#X obj 40 300 hsl 128 15 0 127 0 0 empty empty empty -2 -8 0 10 #99ffea
#000000 #000000 0 1;
#X obj 180 300 tgl 15 0 50 empty empty 17 7 0 10 #99ffea #000000 #000000
0 1;
#X obj 40 320 hsl 128 15 0 127 0 0 empty empty empty -2 -8 0 10 #99ffff
#000000 #000000 0 1;
#X obj 180 320 tgl 15 0 50 empty empty 17 7 0 10 #99ffff #000000 #000000
0 1;
#X obj 40 340 hsl 128 15 0 127 0 0 empty empty empty -2 -8 0 10 #99eaff
#000000 #000000 0 1;
#X obj 180 340 tgl 15 0 50 empty empty 17 7 0 10 #99eaff #000000 #000000
0 1;
#X obj 40 360 hsl 128 15 0 127 0 0 empty empty empty -2 -8 0 10 #99d6ff
#000000 #000000 0 1;
#X obj 180 360 tgl 15 0 50 empty empty 17 7 0 10 #99d6ff #000000 #000000
0 1;
#X obj 40 380 hsl 128 15 0 127 0 0 empty empty empty -2 -8 0 10 #99c1ff
#000000 #000000 0 1;
#X obj 180 380 tgl 15 0 50 empty empty 17 7 0 10 #99c1ff #000000 #000000
0 1;
#X obj 40 400 hsl 128 15 0 127 0 0 empty empty empty -2 -8 0 10 #99adff
#000000 #000000 0 1;
#X obj 180 400 tgl 15 0 50 empty empty 17 7 0 10 #99adff #000000 #000000
0 1;
#X obj 40 420 hsl 128 15 0 127 0 0 empty empty empty -2 -8 0 10 #9999ff
#000000 #000000 0 1;
#X obj 180 420 tgl 15 0 50 empty empty 17 7 0 10 #9999ff #000000 #000000
0 1;
#X obj 40 440 hsl 128 15 0 127 0 0 empty empty empty -2 -8 0 10 #ad99ff
#000000 #000000 0 1;
#X obj 180 440 tgl 15 0 50 empty empty 17 7 0 10 #ad99ff #000000 #000000
0 1;
#X obj 40 460 hsl 128 15 0 127 0 0 empty empty empty -2 -8 0 10 #c199ff
#000000 #000000 0 1;
#X obj 180 460 tgl 15 0 50 empty empty 17 7 0 10 #c199ff #000000 #000000
0 1;
#X obj 40 480 hsl 128 15 0 127 0 0 empty empty empty -2 -8 0 10 #d699ff
#000000 #000000 0 1;
#X obj 180 480 tgl 15 0 50 empty empty 17 7 0 10 #d699ff #000000 #000000
0 1;
#X obj 40 500 hsl 128 15 0 127 0 0 empty empty empty -2 -8 0 10 #ea99ff
#000000 #000000 0 1;
#X obj 180 500 tgl 15 0 50 empty empty 17 7 0 10 #ea99ff #000000 #000000
0 1;
#X obj 40 520 hsl 128 15 0 127 0 0 empty empty empty -2 -8 0 10 #ff99ff
#000000 #000000 0 1;
#X obj 180 520 tgl 15 0 50 empty empty 17 7 0 10 #ff99ff #000000 #000000
0 1;
#X obj 40 540 hsl 128 15 0 127 0 0 empty empty empty -2 -8 0 10 #ff99ea
#000000 #000000 0 1;
#X obj 180 540 tgl 15 0 50 empty empty 17 7 0 10 #ff99ea #000000 #000000
0 1;
#X obj 40 560 hsl 128 15 0 127 0 0 empty empty empty -2 -8 0 10 #ff99d6
#000000 #000000 0 1;
#X obj 180 560 tgl 15 0 50 empty empty 17 7 0 10 #ff99d6 #000000 #000000
0 1;
#X obj 40 580 hsl 128 15 0 127 0 0 empty empty empty -2 -8 0 10 #ff99c1
#000000 #000000 0 1;
#X obj 180 580 tgl 15 0 50 empty empty 17 7 0 10 #ff99c1 #000000 #000000
0 1;
#X obj 40 600 hsl 128 15 0 127 0 0 empty empty empty -2 -8 0 10 #ff99ad
#000000 #000000 0 1;
#X obj 180 600 tgl 15 0 50 empty empty 17 7 0 10 #ff99ad #000000 #000000
0 1;
#X connect 0 0 2 0;
#X connect 1 0 3 0;
#X connect 2 0 4 0;
#X connect 2 1 6 0;
#X connect 2 2 8 0;
#X connect 2 3 10 0;
#X connect 2 4 12 0;
#X connect 2 5 14 0;
#X connect 2 6 16 0;
#X connect 2 7 18 0;
#X connect 2 8 20 0;
#X connect 2 9 22 0;
#X connect 2 10 24 0;
#X connect 2 11 26 0;
#X connect 2 12 28 0;
#X connect 2 13 30 0;
#X connect 2 14 32 0;
#X connect 2 15 34 0;
#X connect 2 16 36 0;
#X connect 2 17 38 0;
#X connect 2 18 40 0;
#X connect 2 19 42 0;
#X connect 2 20 44 0;
#X connect 2 21 46 0;
#X connect 2 22 48 0;
#X connect 2 23 50 0;
#X connect 2 24 52 0;
#X connect 2 25 54 0;
#X connect 2 26 56 0;
#X connect 2 27 58 0;
#X connect 2 28 60 0;
#X connect 2 29 62 0;
#X connect 3 0 5 0;
#X connect 3 1 7 0;
#X connect 3 2 9 0;
#X connect 3 3 11 0;
#X connect 3 4 13 0;
#X connect 3 5 15 0;
#X connect 3 6 17 0;
#X connect 3 7 19 0;
#X connect 3 8 21 0;
#X connect 3 9 23 0;
#X connect 3 10 25 0;
#X connect 3 11 27 0;
#X connect 3 12 29 0;
#X connect 3 13 31 0;
#X connect 3 14 33 0;
#X connect 3 15 35 0;
#X connect 3 16 37 0;
#X connect 3 17 39 0;
#X connect 3 18 41 0;
#X connect 3 19 43 0;
#X connect 3 20 45 0;
#X connect 3 21 47 0;
#X connect 3 22 49 0;
#X connect 3 23 51 0;
#X connect 3 24 53 0;
#X connect 3 25 55 0;
#X connect 3 26 57 0;
#X connect 3 27 59 0;
#X connect 3 28 61 0;
#X connect 3 29 63 0;
#X coords 0 -1 1 1 194 616 2 10 10;
#X restore 10 10 pd \$0-gui;
#X obj 1614 193 inlet hue;
#X obj 1612 406 s to\$0hue, f 14;
#X obj 1614 267 s to\$0hue, f 14;
#X obj 1612 326 r \$0hue;
#X obj 1612 381 sub/rainbowmaker;
#X obj 1614 232 sub/fmod 1;
#X obj 1542 418 s hues;
#X msg 1542 390 \$0 \$1;
#X text 1604 167 👇hue in;
#X text 1544 443 👆 global hue send;
#X text 1608 424 👆 color hue slider;
#X text 1616 289 👆 position to hue slider, f 25;
#X text 1626 356 🔪 cut for performance;
#X obj 1542 356 r \$0hue;
#X msg 1263 737 pos \$1 \$2;
#X obj 1263 710 pack f f, f 15;
#X floatatom 1350 618 5 0 0 0 - - -, f 5;
#X obj 1350 650 * 20, f 5;
#X obj 1263 609 i;
#X obj 1263 636 t b a;
#X obj 1263 764 s \$0highlight-cnv;
#X obj 1350 681 + 18;
#X msg 1263 674 38;
#X obj 1263 415 r \$0hue;
#X obj 1239 114 r hyperstave\$0;
#X obj 1243 171 route notes playheads;
#X obj 1305 250 s \$0-playheads;
#X obj 1244 286 outlet notes-bus;
#X text 1252 390 👇stave highlighting;
#X text 1231 76 👇communication from staves;
#X text 1317 214 🔪 cut for performance;
#X text 1276 500 🔪 cut for performance;
#X obj 936 171 loadbang;
#X obj 878 473 f \$0;
#X obj 876 622 outlet staves;
#X obj 878 526 pack 0 0 0, f 25;
#X obj 1025 473 f;
#X text 962 496 stave;
#X text 1034 496 numstaves;
#X msg 1015 268 8;
#X text 1053 267 numstaves;
#X obj 878 430 t b f b, f 24;
#X obj 937 344 uzi;
#X obj 1015 302 t f f;
#X obj 881 385 counter;
#X msg 879 302 goto 0;
#X obj 936 209 t b b b;
#X msg 878 559 numstaves \$3 \, stave \$2 \, id \$1 \, ready, f 38
;
#X obj 878 587 cyclone/prepend, f 46;
#X obj 907 171 bng 15 250 50 0 empty empty empty 17 7 0 10 #fcfcfc
#000000 #000000;
#X obj 907 73 inlet messages;
#X obj 908 114 route connect;
#X text 895 47 👇connect with staves;
#X msg 2102 1321 clear;
#X obj 1521 1829 s pd-\$0-gui;
#X obj 1034 201 r \$0numstaves;
#X obj 20 18 vsl 15 594 1 0 0 0 \$0hue to\$0hue empty 0 -9 0 10 #d9ff99
#000000 #000000 45750 1;
#X obj 1279 533 r \$0numstaves;
#X obj 1279 558 - 0.1;
#X obj 1263 582 *;
#X obj 2100 1363 s pd-\$0-gui;
#X obj 472 1840 s pd-\$0-gui;
#X obj 1165 1833 s pd-\$0-gui;
#X text 1783 1175 [0] [r \$0-playheads] [1] [route 0-n] * connect 0
0 1 0, f 21;
#X obj 1887 1515 s pd-\$0-gui;
#X obj 1956 1601 uzi;
#X obj 1890 1636 counter;
#X msg 1891 1594 goto 0;
#X obj 1892 1708 list, f 17;
#X obj 1146 1286 t f b f f b, f 160;
#X text 2072 1254 clear patch;
#X text 1828 1258 single objects;
#X obj 1359 1454 t f f, f 12;
#X text 1428 1255 buttons and playheads;
#X text 1158 1264 canvas properties and hue slider;
#X obj 1847 1558 t b f b b, f 30;
#X obj 1849 1361 t f b b, f 15;
#X obj 1894 1670 list prepend;
#X msg 2031 1641 route;
#X obj 1891 1751 route list;
#X obj 1897 1786 cyclone/prepend set;
#X msg 1856 1851 route 0 1 2 3 4 5 6 7 8 9 10 11 12 13 14 15 16 17
18 19 20 21 22 23 24 25 26 27 28 29;
#X obj 1851 2057 s pd-\$0-gui;
#X obj 1902 2015 prepend obj 150 -50;
#X obj 1871 1987 prepend obj 300 -100;
#X text 4476 2252 hi;
#X msg 1851 1933 connect 0 0 2 0 \, connect 1 0 3 0;
#X text 2029 2016 connect r-playheads to route 1;
#X text 2009 1988 connect r-buttons to route 3;
#X obj 1432 1529 t f f f, f 23;
#X obj 1389 1645 t f f, f 6;
#X obj 1390 1717 pack;
#X msg 1423 1769 connect 2 \$1 \$2 0;
#X obj 1159 1541 t f f f, f 19;
#X text 1536 1749 make and connect playheads;
#X obj 1025 1615 t f f, f 6;
#X obj 1026 1737 pack;
#X obj 923 1186 s pd-\$0-gui;
#X msg 878 1145 vis 1;
#X msg 925 1144 vis 0;
#X msg 1019 1789 connect 3 \$1 \$2 0;
#X msg 1522 1677 obj 40 \$1 hsl 128 15 0 1 0 0, f 19;
#X msg 1167 1686 obj 180 \$1 tgl 15 250 50 empty, f 14;
#X obj 1409 1676 expr $f1 * 2 + 4;
#X obj 1046 1677 expr $f1 * 2 + 5;
#X obj 1122 1131 t b b f;
#X obj 1015 1188 s \$0-ui-refresh;
#X obj 553 71 r \$0-ui-refresh;
#X obj 553 547 s \$0-playheads;
#X obj 645 547 s \$0-buttons;
#X floatatom 1263 479 5 0 0 0 - - -, f 5;
#X obj 1271 449 r \$0-ui-refresh;
#X obj 890 1070 namecanvas \$0-hyperstave;
#X obj 617 1831 s \$0-hyperstave;
#X obj 1126 1071 f \$1;
#X obj 1855 1881 t b a a;
#X obj 600 491 list prepend;
#X obj 2018 1418 f \$0;
#X msg 2017 1460 obj 150 -100 r \$1-playheads, f 19;
#X obj 1886 1386 f \$0;
#X msg 1885 1418 obj 300 -150 r \$1-buttons, f 19;
#X msg 1162 1085 16;
#X msg 542 1685 donecanvasdialog 1 -1 2 \$1 -1 1 1 194 \$2 10 10,
f 22;
#X msg 465 1791 dirty 0;
#X obj 1124 1342 t b f;
#X obj 1046 1489 f;
#X obj 1060 1383 del 1000;
#X obj 540 1745 t b a b a;
#X msg 577 1794 dirty 0;
#X text 1207 1070 👈 SET NUM STAVES;
#X text 1044 991 🔥🐉 MAGIC DYNAMIC GUI BUILDER 🐉🔥;
#X connect 7 0 10 0;
#X connect 9 0 152 0;
#X connect 11 0 153 0;
#X connect 12 0 13 0;
#X connect 13 0 123 0;
#X connect 14 0 19 0;
#X connect 15 0 12 0;
#X connect 15 1 16 0;
#X connect 16 0 13 0;
#X connect 18 0 17 0;
#X connect 19 0 120 0;
#X connect 23 0 167 0;
#X connect 24 0 18 0;
#X connect 25 0 26 1;
#X connect 26 0 23 0;
#X connect 27 0 26 0;
#X connect 27 1 167 1;
#X connect 29 0 8 0;
#X connect 30 0 31 0;
#X connect 31 0 27 0;
#X connect 32 0 35 0;
#X connect 33 0 30 0;
#X connect 33 1 34 0;
#X connect 34 0 31 0;
#X connect 35 0 37 0;
#X connect 36 0 35 1;
#X connect 37 0 33 0;
#X connect 37 1 30 1;
#X connect 38 0 165 0;
#X connect 39 0 173 0;
#X connect 41 0 39 0;
#X connect 41 1 39 1;
#X connect 41 2 39 0;
#X connect 43 0 41 0;
#X connect 44 0 43 0;
#X connect 44 1 24 0;
#X connect 44 2 47 0;
#X connect 46 0 45 0;
#X connect 47 0 46 0;
#X connect 49 0 19 1;
#X connect 49 1 20 0;
#X connect 51 0 56 0;
#X connect 54 0 55 0;
#X connect 55 0 52 0;
#X connect 56 0 53 0;
#X connect 58 0 57 0;
#X connect 64 0 58 0;
#X connect 65 0 71 0;
#X connect 66 0 65 0;
#X connect 67 0 68 0;
#X connect 68 0 72 0;
#X connect 69 0 70 0;
#X connect 70 0 73 0;
#X connect 70 1 67 0;
#X connect 72 0 66 1;
#X connect 73 0 66 0;
#X connect 74 0 161 0;
#X connect 75 0 76 0;
#X connect 76 0 78 0;
#X connect 76 1 77 0;
#X connect 83 0 97 0;
#X connect 84 0 86 0;
#X connect 86 0 98 0;
#X connect 87 0 86 2;
#X connect 90 0 94 0;
#X connect 92 0 84 0;
#X connect 92 1 86 1;
#X connect 92 2 87 0;
#X connect 93 0 95 0;
#X connect 94 0 93 1;
#X connect 94 1 87 1;
#X connect 95 0 92 0;
#X connect 96 0 95 0;
#X connect 97 0 93 0;
#X connect 97 1 96 0;
#X connect 97 2 90 0;
#X connect 98 0 99 0;
#X connect 99 0 85 0;
#X connect 100 0 97 0;
#X connect 101 0 102 0;
#X connect 102 0 100 0;
#X connect 104 0 111 0;
#X connect 108 0 109 0;
#X connect 109 0 110 1;
#X connect 110 0 69 0;
#X connect 116 0 117 0;
#X connect 117 0 128 0;
#X connect 118 0 117 0;
#X connect 119 0 128 1;
#X connect 119 0 130 0;
#X connect 120 0 175 0;
#X connect 120 0 44 0;
#X connect 120 1 15 0;
#X connect 120 2 12 1;
#X connect 120 3 127 0;
#X connect 120 4 104 0;
#X connect 123 0 144 0;
#X connect 123 1 140 0;
#X connect 126 0 132 0;
#X connect 126 1 116 0;
#X connect 126 2 118 0;
#X connect 126 3 129 0;
#X connect 127 0 126 0;
#X connect 127 1 170 0;
#X connect 127 2 168 0;
#X connect 128 0 119 0;
#X connect 129 0 119 0;
#X connect 130 0 131 0;
#X connect 131 0 132 0;
#X connect 132 0 166 0;
#X connect 134 0 133 0;
#X connect 135 0 133 0;
#X connect 137 0 133 0;
#X connect 140 0 141 0;
#X connect 140 1 29 0;
#X connect 140 2 9 0;
#X connect 141 0 142 0;
#X connect 141 1 154 0;
#X connect 142 0 143 0;
#X connect 143 0 105 0;
#X connect 144 0 146 0;
#X connect 144 1 7 0;
#X connect 144 2 11 0;
#X connect 146 0 147 0;
#X connect 146 1 155 0;
#X connect 147 0 151 0;
#X connect 149 0 148 0;
#X connect 150 0 148 0;
#X connect 151 0 113 0;
#X connect 152 0 105 0;
#X connect 153 0 113 0;
#X connect 154 0 142 1;
#X connect 155 0 147 1;
#X connect 156 0 157 0;
#X connect 156 1 14 0;
#X connect 156 2 49 0;
#X connect 158 0 32 0;
#X connect 161 0 110 0;
#X connect 162 0 161 0;
#X connect 165 0 156 0;
#X connect 166 0 137 0;
#X connect 166 1 135 0;
#X connect 166 2 134 0;
#X connect 167 0 159 0;
#X connect 167 0 160 0;
#X connect 168 0 169 0;
#X connect 169 0 115 0;
#X connect 170 0 171 0;
#X connect 171 0 115 0;
#X connect 172 0 156 0;
#X connect 173 0 178 0;
#X connect 174 0 112 0;
#X connect 175 0 177 0;
#X connect 175 1 176 1;
#X connect 177 0 176 0;
#X connect 178 0 174 0;
#X connect 178 1 112 0;
#X connect 178 2 179 0;
#X connect 178 3 164 0;
#X connect 179 0 164 0;
#X coords 0 -1 1 1 194 616 2 10 10;
