#N canvas 120 60 1298 658 10;
#X obj 70 223 cnv 15 147 131 empty empty empty 20 12 0 14 #c0c0c0 #404040
0;
#X text 833 158 pulse;
#X obj 768 263 metro;
#X obj 795 225 expr 60000/$f1;
#X obj 800 296 r \$0-rewind;
#X obj 1136 392 del;
#X obj 1173 432 del;
#X obj 75 289 tgl 15 0 \$0-go \$0-togo play 17 7 0 10 #ffffff #bfff80
#000000 1 1;
#X obj 768 122 t f b;
#X obj 769 323 counter;
#X obj 794 190 * 4;
#X obj 935 479 i;
#X obj 1008 493 / 4;
#X obj 1008 513 i;
#X obj 935 453 / 4;
#X obj 840 500 i;
#X obj 840 458 / 2;
#X obj 840 521 % 8;
#X obj 726 493 % 16;
#X obj 1008 533 change;
#X obj 935 505 change;
#X obj 840 479 change;
#X obj 935 531 % 4;
#X msg 1119 304 bang;
#X obj 1226 279 expr 60000/$f1;
#X obj 1112 504 counter;
#X obj 1170 468 r \$0-rewind;
#X obj 1225 244 * 3;
#X obj 1111 530 % 12;
#X msg 795 159 140;
#X obj 935 562 s \$0-beats;
#X obj 1118 271 r \$0-beats;
#X obj 561 562 s \$0-ticks;
#X obj 1008 562 s \$0-bars;
#X text 663 191 16ths as ticks 👉;
#X floatatom 179 228 5 0 0 0 ticks #0-ticks ticks, f 5;
#X floatatom 179 248 5 0 0 0 16ths #0-16ths 16ths, f 5;
#X obj 726 562 s \$0-16ths;
#X obj 840 562 s \$0-8ths;
#X floatatom 179 288 5 0 0 0 8ths #0-8ths 8ths, f 5;
#X floatatom 179 308 5 0 0 0 beats #0-beats beats, f 5;
#X floatatom 179 328 5 0 0 0 bars #0-bars bars, f 5;
#X floatatom 179 268 5 0 0 0 12ths #0-12ths 12ths, f 5;
#X obj 1109 562 s \$0-12ths;
#X obj 75 308 bng 15 250 50 0 \$0-rewind \$0-torewind rewind 17 7 0
10 #ffffff #80bfff #000000;
#X obj 768 91 r \$0-go;
#X floatatom 75 328 5 0 0 1 bpm #0-tobpm #0-bpm, f 5;
#X obj 822 67 r \$0-bpm;
#X msg 838 121 set \$1;
#X obj 456 138 inlet;
#X obj 456 173 route rewind play 1 0 bpm;
#X obj 487 220 s \$0-togo;
#X obj 454 247 s \$0-torewind;
#X obj 556 221 s \$0-tobpm;
#X msg 513 140 rewind;
#X msg 570 141 play \$1;
#X obj 571 106 tgl 15 0 empty empty empty 17 7 0 10 #fcfcfc #000000
#000000 0 1;
#X msg 634 140 bpm \$1;
#X floatatom 634 103 5 0 0 0 - - -, f 5;
#X obj 825 94 t b f;
#X msg 324 441 label \$1;
#X obj 319 341 sel 0 1;
#X obj 322 545 s \$0-indicator;
#X obj 398 506 r \$0-beats;
#X obj 325 295 r \$0-go;
#X msg 293 391 symbol 😐;
#X obj 71 223 bng 60 250 50 0 \$0-fromindicator \$0-indicator 😀
3 24 0 40 #ff8080 #b7ffff #000000;
#X obj 554 312 sel 0;
#X obj 563 268 r \$0-beats;
#X msg 381 387 symbol 😀;
#X msg 464 369 symbol 😄;
#X connect 2 0 9 0;
#X connect 3 0 2 1;
#X connect 4 0 9 2;
#X connect 5 0 6 0;
#X connect 5 0 25 0;
#X connect 6 0 25 0;
#X connect 8 0 2 0;
#X connect 8 1 29 0;
#X connect 9 0 14 0;
#X connect 9 0 16 0;
#X connect 9 0 18 0;
#X connect 9 0 32 0;
#X connect 10 0 3 0;
#X connect 11 0 20 0;
#X connect 12 0 13 0;
#X connect 13 0 19 0;
#X connect 14 0 11 0;
#X connect 14 0 12 0;
#X connect 15 0 17 0;
#X connect 16 0 21 0;
#X connect 17 0 38 0;
#X connect 18 0 37 0;
#X connect 19 0 33 0;
#X connect 20 0 22 0;
#X connect 21 0 15 0;
#X connect 22 0 30 0;
#X connect 23 0 25 0;
#X connect 23 0 5 0;
#X connect 24 0 5 1;
#X connect 24 0 6 1;
#X connect 25 0 28 0;
#X connect 26 0 25 2;
#X connect 27 0 24 0;
#X connect 28 0 43 0;
#X connect 29 0 10 0;
#X connect 29 0 27 0;
#X connect 31 0 23 0;
#X connect 45 0 8 0;
#X connect 47 0 59 0;
#X connect 48 0 29 0;
#X connect 49 0 50 0;
#X connect 50 0 52 0;
#X connect 50 1 51 0;
#X connect 50 2 51 0;
#X connect 50 3 51 0;
#X connect 50 4 53 0;
#X connect 54 0 50 0;
#X connect 55 0 50 0;
#X connect 56 0 55 0;
#X connect 57 0 50 0;
#X connect 58 0 57 0;
#X connect 59 0 29 0;
#X connect 59 1 48 0;
#X connect 60 0 62 0;
#X connect 61 0 65 0;
#X connect 61 1 69 0;
#X connect 63 0 62 0;
#X connect 64 0 61 0;
#X connect 65 0 60 0;
#X connect 67 0 70 0;
#X connect 67 1 69 0;
#X connect 68 0 67 0;
#X connect 69 0 60 0;
#X connect 70 0 60 0;
#X coords 0 -1 1 1 154 139 2 67 219;
