#N canvas 0 0 1538 780 10;
#X obj 70 223 cnv 15 147 131 empty empty empty 20 12 0 14 #c0c0c0 #404040
0;
#X text 941 193 pulse;
#X obj 876 298 metro;
#X obj 903 260 expr 60000/$f1;
#X obj 908 331 r \$0-rewind;
#X obj 75 229 tgl 15 0 \$0-go \$0-togo play 17 7 0 10 #ffffff #bfff80
#000000 0 1;
#X obj 876 157 t f b;
#X obj 877 358 counter;
#X obj 1043 514 i;
#X obj 1116 528 / 4;
#X obj 1116 548 i;
#X obj 948 535 i;
#X obj 948 556 % 8;
#X obj 1116 568 change;
#X obj 1043 540 change;
#X obj 948 514 change;
#X obj 1043 566 % 4;
#X obj 1043 597 s \$0-beats;
#X obj 877 393 s \$0-ticks;
#X obj 1116 597 s \$0-bars;
#X text 771 226 16ths as ticks 👉;
#X floatatom 179 228 5 0 0 0 ticks #0-ticks ticks, f 5;
#X floatatom 179 248 5 0 0 0 16ths #0-16ths 16ths, f 5;
#X obj 764 597 s \$0-16ths;
#X obj 948 597 s \$0-8ths;
#X floatatom 179 288 5 0 0 0 8ths #0-8ths 8ths, f 5;
#X floatatom 179 308 5 0 0 0 beats #0-beats beats, f 5;
#X floatatom 179 328 5 0 0 0 bars #0-bars bars, f 5;
#X floatatom 179 268 5 0 0 0 12ths #0-12ths 12ths, f 5;
#X obj 846 597 s \$0-12ths;
#X obj 75 248 bng 15 250 50 0 \$0-rewind \$0-torewind rewind 17 7 0
10 #ffffff #80bfff #000000;
#X obj 876 126 r \$0-go;
#X floatatom 75 268 5 0 0 1 bpm #0-tobpm #0-bpm, f 5;
#X obj 930 102 r \$0-bpm;
#X msg 946 156 set \$1;
#X obj 456 138 inlet;
#X obj 456 173 route rewind play 1 0 bpm;
#X obj 487 220 s \$0-togo;
#X obj 454 247 s \$0-torewind;
#X obj 556 221 s \$0-tobpm;
#X msg 513 140 rewind;
#X msg 570 141 play \$1;
#X obj 571 106 tgl 15 0 empty empty empty 17 7 0 10 #fcfcfc #000000
#000000 0 1;
#X msg 634 140 bpm \$1;
#X floatatom 634 103 5 0 0 0 - - -, f 5;
#X obj 933 129 t b f;
#X obj 902 225 * 24;
#X floatatom 940 300 5 0 0 0 - - -, f 5;
#X msg 903 194 120;
#X obj 1043 488 / 24;
#X obj 948 493 / 12;
#X obj 764 550 i;
#X obj 764 529 change;
#X obj 764 508 / 6;
#X obj 764 571 % 16;
#X text 1236 517 24 ticks per beat;
#X text 1236 558 12 ticks per quaver;
#X text 1236 601 6 ticks per semiquaver;
#X obj 764 476 r \$0-ticks;
#X obj 946 453 r \$0-ticks;
#X obj 1040 451 r \$0-ticks;
#X text 1236 472 96 ticks per bar of 4/4;
#X text 1236 579 8 ticks per quaver triplet;
#X text 1236 495 32 ticks per minim triplet;
#X text 1236 538 16 ticks per crotchet triplet;
#X obj 849 540 i;
#X obj 849 519 change;
#X obj 849 466 r \$0-ticks;
#X obj 849 498 / 8;
#X obj 849 561 % 12;
#X obj 821 154 s play;
#X connect 2 0 7 0;
#X connect 3 0 2 1;
#X connect 3 0 47 0;
#X connect 4 0 7 2;
#X connect 6 0 2 0;
#X connect 6 1 48 0;
#X connect 7 0 18 0;
#X connect 8 0 14 0;
#X connect 9 0 10 0;
#X connect 10 0 13 0;
#X connect 11 0 12 0;
#X connect 12 0 24 0;
#X connect 13 0 19 0;
#X connect 14 0 16 0;
#X connect 15 0 11 0;
#X connect 16 0 17 0;
#X connect 31 0 6 0;
#X connect 31 0 70 0;
#X connect 33 0 45 0;
#X connect 34 0 48 0;
#X connect 35 0 36 0;
#X connect 36 0 38 0;
#X connect 36 1 37 0;
#X connect 36 2 37 0;
#X connect 36 3 37 0;
#X connect 36 4 39 0;
#X connect 40 0 36 0;
#X connect 41 0 36 0;
#X connect 42 0 41 0;
#X connect 43 0 36 0;
#X connect 44 0 43 0;
#X connect 45 0 48 0;
#X connect 45 1 34 0;
#X connect 46 0 3 0;
#X connect 48 0 46 0;
#X connect 49 0 8 0;
#X connect 49 0 9 0;
#X connect 50 0 15 0;
#X connect 51 0 54 0;
#X connect 52 0 51 0;
#X connect 53 0 52 0;
#X connect 54 0 23 0;
#X connect 58 0 53 0;
#X connect 59 0 50 0;
#X connect 60 0 49 0;
#X connect 65 0 69 0;
#X connect 66 0 65 0;
#X connect 67 0 68 0;
#X connect 68 0 66 0;
#X connect 69 0 29 0;
#X coords 0 -1 1 1 154 139 2 67 219;
