#N canvas 380 120 786 550 10;
#X obj 65 540 s;
#X obj 774 117 s \$0id;
#X obj 863 117 s \$0stave;
#X obj 95 468 r \$0id;
#X obj 155 150 r \$0stave;
#X obj 953 117 s \$0ready;
#X obj 774 26 inlet h-stave, f 7;
#X obj 602 446 -;
#X obj 660 353 r \$0stave;
#X obj 602 558 abs;
#X text 524 382 num staves;
#X obj 602 498 expr if($f1 > $f2/2 \, $f1 - $f2 \, $f1), f 22;
#X obj 660 391 + 0.5;
#X text 129 535 👈forwards note tuples (note \, velocity \, duration)
to hyperstave note out, f 34;
#X text 769 599 👈distance from center of stave 0 is centred on stave
\, 0.5 is the boundary to the next stave. 5 is over the centre of the
5th stave away., f 27;
#X obj 54 10 inlet messages, f 26;
#X obj 599 603 cyclone/prepend distance;
#X obj 595 293 r \$0hue;
#X obj 597 638 s \$0outlet;
#X obj 602 745 r \$0outlet;
#X obj 976 442 r \$0stave;
#X obj 960 331 r \$0hue;
#X obj 961 697 s \$0outlet;
#X obj 961 471 -;
#X obj 961 654 cyclone/prepend relativepos;
#X obj 1179 657 cyclone/prepend active;
#X obj 1179 691 s \$0outlet;
#X obj 1225 581 <= 1;
#X obj 1179 581 >= 0;
#X obj 1179 619 *;
#X obj 1179 529 t f f;
#X obj 961 589 expr if($f1 > $f2/2 \, $f1 - $f2 \, $f1), f 22;
#X obj 1188 61 r \$0id;
#X text 836 29 👈receive id \, stave-num and hue from hyperstave
👉;
#X obj 1155 97 route;
#X obj 1155 29 r hues;
#X obj 1155 165 s \$0hue;
#X obj 56 294 cyclone/prepend notes;
#X msg 94 503 symbol hyperstave\$1;
#X obj 112 271 s \$0-to-hyperstave;
#X obj 66 436 r \$0-to-hyperstave;
#X obj 56 330 s \$0-to-hyperstave;
#X text 268 238 👈forwards normalised float to stave position indicators
, f 22;
#X obj 112 236 cyclone/prepend playheads;
#X obj 112 204 zl rev;
#X obj 112 178 pack f f;
#X text 200 319 👈forwards notes to hyperstave note bus, f 22;
#X obj 601 775 outlet;
#X text 685 742 👈messages to stave, f 27;
#X text 226 9 👈messages from stave, f 27;
#X text 1492 866 hi;
#X obj 1032 117 s \$0numstaves;
#X obj 775 79 route id stave ready numstaves, f 45;
#X obj 961 419 * 1;
#X obj 594 384 * 1;
#X obj 116 116 * 127;
#X text 156 104 💩this is a kludge as the sliders have a range 0
127, f 22;
#X floatatom 1049 405 5 0 0 0 - - -, f 5;
#X floatatom 1075 474 5 0 0 0 - - -, f 5;
#X obj 975 362 r \$0numstaves;
#X obj 1009 544 r \$0numstaves;
#X obj 733 440 r \$0numstaves;
#X obj 615 323 r \$0numstaves;
#X obj 112 81 clip 0 1;
#X obj 55 48 route notes playhead button, f 67;
#X obj 379 78 r \$0stave;
#X obj 336 199 s \$0-to-hyperstave;
#X text 492 166 👈forwards normalised float to stave position indicators
, f 22;
#X obj 336 132 zl rev;
#X obj 336 106 pack f f;
#X obj 336 164 cyclone/prepend buttons;
#X connect 3 0 38 0;
#X connect 4 0 45 1;
#X connect 6 0 52 0;
#X connect 7 0 11 0;
#X connect 8 0 12 0;
#X connect 9 0 16 0;
#X connect 11 0 9 0;
#X connect 12 0 7 1;
#X connect 15 0 64 0;
#X connect 16 0 18 0;
#X connect 17 0 54 0;
#X connect 19 0 47 0;
#X connect 20 0 23 1;
#X connect 20 0 58 0;
#X connect 21 0 53 0;
#X connect 23 0 30 0;
#X connect 23 0 31 0;
#X connect 24 0 22 0;
#X connect 25 0 26 0;
#X connect 27 0 29 1;
#X connect 28 0 29 0;
#X connect 29 0 25 0;
#X connect 30 0 28 0;
#X connect 30 1 27 0;
#X connect 31 0 24 0;
#X connect 32 0 34 1;
#X connect 34 0 36 0;
#X connect 35 0 34 0;
#X connect 37 0 41 0;
#X connect 38 0 0 1;
#X connect 40 0 0 0;
#X connect 43 0 39 0;
#X connect 44 0 43 0;
#X connect 45 0 44 0;
#X connect 52 0 1 0;
#X connect 52 1 2 0;
#X connect 52 2 5 0;
#X connect 52 3 51 0;
#X connect 53 0 23 0;
#X connect 54 0 7 0;
#X connect 55 0 45 0;
#X connect 59 0 53 1;
#X connect 59 0 57 0;
#X connect 60 0 31 1;
#X connect 61 0 11 1;
#X connect 62 0 54 1;
#X connect 63 0 55 0;
#X connect 64 0 37 0;
#X connect 64 1 63 0;
#X connect 64 2 69 0;
#X connect 65 0 69 1;
#X connect 68 0 70 0;
#X connect 69 0 68 0;
#X connect 70 0 66 0;
