#N canvas -8 -8 1554 795 10;
#X obj 208 270 cnv 15 95 34 empty empty empty 20 12 0 14 #ff80ff #404040
0;
#X obj 153 571 outlet;
#X obj 166 124 tgl 15 0 \$0-looptoggle empty loop 17 5 0 10 #fcfcfc
#000000 #000000 1 1;
#X obj 22 129 hsl 127 16 0 189 0 0 \$0-from-playslider \$0-playslider
empty -2 -8 0 10 #fcfcfc #000000 #000000 2600 1;
#X obj 166 107 bng 15 250 50 0 \$0-loadfile empty load 17 7 0 10 #fcfcfc
#000000 #000000;
#X obj 968 98 r ticks;
#X obj 968 154 spigot;
#X obj 166 141 tgl 15 0 \$0-playtoggle \$0-playtoggle play 17 5 0 10
#fcfcfc #000000 #000000 1 1;
#X obj 999 130 r \$0-playtoggle;
#X obj 1077 239 counter, f 23;
#X obj 1077 323 s \$0-playslider;
#X floatatom 1077 297 5 0 0 0 - - -, f 5;
#X obj 813 537 s \$0-playslider;
#X msg 812 512 range 0 \$1;
#X obj 812 489 r \$0-length;
#X obj 223 278 cyclone/seq;
#X obj 558 89 r \$0-loadfile;
#X obj 506 323 s \$0-to-seq;
#X obj 222 239 r \$0-to-seq;
#X obj 285 313 bng 15 250 50 0 empty empty empty 17 7 0 10 #fcfcfc
#000000 #000000;
#X obj 574 193 s \$0-to-seq;
#X msg 574 161 start -1;
#X obj 715 305 counter;
#X floatatom 812 422 14 0 0 0 - - -, f 14;
#X obj 479 185 t b 0;
#X obj 479 366 f;
#X text 1114 978 hi;
#X obj 812 457 s \$0-length;
#X obj 558 125 t 1 b b b 0, f 43;
#X text 644 45 loading 👇;
#X obj 224 369 midiparse;
#X msg 968 249 tick;
#X obj 1003 428 r \$0-looptoggle;
#X obj 1003 494 gate 2, f 21;
#X obj 1003 461 + 1;
#X obj 1026 620 s \$0-playtoggle;
#X msg 1006 653 start -1;
#X obj 1004 687 s \$0-to-seq;
#X obj 286 340 s \$0-endbang;
#X obj 479 53 r \$0-endbang;
#X obj 1122 463 r \$0-endbang;
#X obj 1004 545 t b 0 b;
#X msg 1227 715 start -1;
#X obj 1227 753 s \$0-to-seq;
#X obj 968 293 s \$0-to-seq;
#X obj 968 194 t b b;
#X obj 558 237 metro 1;
#X msg 508 237 0;
#X obj 556 263 t b b;
#X msg 505 293 tick;
#X obj 826 190 s \$0-playtoggle;
#X text 1039 60 playback and slider control 👇;
#X text 1011 391 loop control 👇;
#X obj 153 535 gate;
#X obj 39 404 r \$0-loadfile;
#X msg 39 434 0;
#X obj 112 431 r \$0-endbang;
#X msg 112 464 1;
#X obj 1158 123 r \$0-to-seq;
#X obj 1135 146 route start;
#X msg 1116 183 0;
#X obj 1092 155 bng 15 250 50 0 empty empty empty 17 7 0 10 #fcfcfc
#000000 #000000;
#X msg 1216 208 99999;
#X obj 1197 444 r ticks;
#X obj 1246 500 / 24;
#X obj 1246 550 i;
#X obj 1241 609 % 4;
#X floatatom 217 125 5 0 0 1 duration - #0-loop-length, f 5;
#X obj 1257 576 r \$0-loop-length;
#X obj 1276 435 r \$0-looptoggle;
#X obj 1240 471 spigot;
#X msg 636 161 read assets/beat4.mid;
#X obj 1227 682 sel 1;
#X obj 1230 642 change;
#X connect 5 0 6 0;
#X connect 6 0 45 0;
#X connect 8 0 6 1;
#X connect 9 0 11 0;
#X connect 11 0 10 0;
#X connect 13 0 12 0;
#X connect 14 0 13 0;
#X connect 15 0 30 0;
#X connect 15 1 19 0;
#X connect 16 0 28 0;
#X connect 18 0 15 0;
#X connect 19 0 38 0;
#X connect 21 0 20 0;
#X connect 22 0 25 1;
#X connect 23 0 27 0;
#X connect 24 0 25 0;
#X connect 24 1 46 0;
#X connect 25 0 23 0;
#X connect 28 0 46 0;
#X connect 28 1 21 0;
#X connect 28 2 71 0;
#X connect 28 3 22 2;
#X connect 28 4 23 0;
#X connect 28 4 50 0;
#X connect 30 0 53 1;
#X connect 31 0 44 0;
#X connect 32 0 34 0;
#X connect 33 0 41 0;
#X connect 34 0 33 0;
#X connect 36 0 37 0;
#X connect 39 0 24 0;
#X connect 40 0 33 1;
#X connect 41 0 36 0;
#X connect 41 1 35 0;
#X connect 42 0 43 0;
#X connect 45 0 31 0;
#X connect 45 1 9 0;
#X connect 46 0 48 0;
#X connect 47 0 46 0;
#X connect 48 0 49 0;
#X connect 48 1 22 0;
#X connect 49 0 17 0;
#X connect 53 0 1 0;
#X connect 54 0 55 0;
#X connect 55 0 53 0;
#X connect 56 0 57 0;
#X connect 57 0 53 0;
#X connect 58 0 59 0;
#X connect 59 0 61 0;
#X connect 60 0 9 2;
#X connect 61 0 60 0;
#X connect 62 0 9 4;
#X connect 63 0 70 0;
#X connect 64 0 65 0;
#X connect 65 0 66 0;
#X connect 66 0 73 0;
#X connect 68 0 66 1;
#X connect 69 0 70 1;
#X connect 70 0 64 0;
#X connect 71 0 20 0;
#X connect 72 0 42 0;
#X connect 73 0 72 0;
#X coords 0 -1 1 1 302 60 2 13 102;
