#N canvas 376 0 770 772 10;
#X obj 100 80 cnv 15 189 169 empty empty empty 20 12 0 14 #c0c0c0 #404040
0;
#X obj 650 200 soundfiler;
#N canvas 0 0 450 300 (subpatch) 0;
#X array \$0-sample 14540 float 2 black black;
#X coords 0 1 14540 -1 175 70 1;
#X restore 110 120 graph;
#X obj 640 1011 *~;
#X obj 810 330 phasor~;
#X obj 640 950 tabread4~ \$0-sample;
#X obj 650 50 bng 15 250 50 0 empty empty empty 17 7 0 10 #fcfcfc #000000
#000000;
#X obj 650 80 openpanel;
#X floatatom 680 230 15 0 0 0 - - -, f 15;
#X obj 810 300 expr 44100 / $f1;
#X obj 677 257 s \$0-sample-size;
#X obj 640 770 *~;
#X obj 660 730 r \$0-sample-size;
#X obj 680 821 snapshot~;
#X obj 750 821 r \$0-sample-size;
#X obj 680 851 /;
#X floatatom 690 330 15 0 0 0 - - -, f 15;
#X obj 650 300 expr $f1/44100 * 1000;
#X obj 530 330 f;
#X obj 640 700 line~;
#X obj 530 300 bng 15 250 50 0 empty empty empty 17 7 0 10 #fcfcfc
#000000 #000000;
#X msg 530 620 1 \$1;
#X obj 530 360 t f b;
#X msg 660 420 0, f 5;
#X obj 150 40 tgl 35 0 \$0-from-looptoggle \$0-to-looptoggle loop 4
15 0 10 #fcfcfc #000000 #000000 0 1;
#X obj 110 190 hsl 170 15 0 1 0 0 \$0-from-play-slider \$0-to-play-slider
empty -2 -8 0 10 #fcfcfc #000000 #000000 0 1;
#X floatatom 190 40 11 0 0 2 duration #0-to-duration-n #0-from-duration-n
, f 11;
#X symbolatom 110 100 29 0 0 2 filepath #0-to-file-path #0-from-file-path
, f 29;
#X obj 190 60 hsl 64 15 0 5 0 0 \$0-from-duration-unit \$0-to-duration-unit
bars 6 6 0 10 #fcfcfc #000000 #808080 0 1;
#X obj 680 900 s \$0-to-play-slider;
#X obj 650 110 s \$0-to-file-path;
#X obj 650 140 r \$0-from-file-path;
#X obj 820 170 print;
#X msg 650 170 read -resize \$1 \$0-sample;
#X text 1510 1180 comment;
#X obj 110 210 bng 35 250 50 0 \$0-from-go \$0-to-go go 10 15 0 10
#fcfcfc #000000 #000000;
#X obj 530 270 r \$0-from-go;
#X obj 150 210 hsl 130 15 0 1 0 1 \$0-from-volume \$0-to-volume volume
5 6 0 10 #fcfcfc #000000 #000000 5350 1;
#X obj 650 980 r \$0-from-volume;
#X obj 90 420 inlet;
#X obj 90 550 t b f;
#X obj 120 580 s \$0-to-volume;
#X obj 90 610 s \$0-to-go;
#X obj 140 520 s \$0-to-go;
#X text 140 420 float between 0 and 1 sets volume and triggers sample
;
#X obj 220 520 s \$0-to-volume;
#X obj 330 520 s \$0-to-file-path;
#X obj 550 450 r \$0-from-pitch;
#X obj 530 590 * 1;
#X obj 553 544 /;
#X obj 562 479 t b f;
#X msg 550 510 1;
#X obj 150 230 hsl 111 15 0.1 3 0 1 \$0-from-pitch \$0-to-pitch pitch
5 6 0 10 #fcfcfc #000000 #000000 3300 1;
#X obj 270 230 bng 15 250 50 0 \$0-reset-pitch empty empty 17 7 0 10
#fcfcfc #000000 #000000;
#X obj 370 310 r \$0-reset-pitch;
#X obj 370 370 s \$0-to-pitch;
#X msg 370 340 1;
#X obj 90 470 route float bang volume read route pitch, f 48;
#X obj 370 501 s \$0-to-pitch;
#X obj 640 1050 outlet~;
#X obj 720 760 r ticks;
#X obj 12 792 cnv 15 580 387 empty empty empty 20 12 0 14 #e0e0e0 #404040
0;
#N canvas 36 76 1346 690 numbercruncher 0;
#X obj 95 72 inlet;
#X obj 142 288 loadbang;
#X obj 291 598 outlet;
#X text 689 273 Receives GOP values and sends them on again to the
saver;
#X obj 742 351 t b f;
#X msg 215 346 symbol flt;
#X msg 365 346 symbol flt;
#X obj 1012 354 t b f;
#X text 795 136 Sends creation argument list to the GOP objects;
#X obj 583 391 s \$0-store-args;
#X obj 24 346 r \$0-store-args;
#X obj 719 387 s \$0-store-args;
#X obj 884 391 s \$0-store-args;
#X obj 998 387 s \$0-store-args;
#X text 272 32 args: file duration(in beats \, sets loop to true) quantize
(ticks), f 70;
#X msg 140 346 symbol sym;
#X obj 606 350 t b s;
#X obj 898 349 t b f;
#X obj 95 106 unpack s s s f s f s f s f, f 71;
#X msg 290 346 symbol flt;
#X obj 742 300 r \$0-from-duration-n;
#X obj 198 162 s \$0-to-duration-n;
#X obj 557 173 s \$0-to-duration-unit;
#X obj 1174 354 t b f;
#X obj 1160 387 s \$0-store-args;
#X obj 1132 316 r \$0-from-duration-unit;
#X obj 291 560 pack s s s f s f s f s f, f 68;
#X obj 142 313 t b b b b b, f 47;
#X msg 444 342 symbol flt;
#X obj 328 214 s \$0-to-volume;
#X obj 377 157 s \$0-to-pitch;
#X obj 886 292 r \$0-from-volume;
#X obj 140 200 s \$0-to-file-path;
#X obj 606 321 r \$0-from-file-path;
#X obj 970 316 r \$0-from-pitch;
#X connect 0 0 18 0;
#X connect 1 0 27 0;
#X connect 4 0 11 0;
#X connect 4 1 26 3;
#X connect 5 0 26 2;
#X connect 6 0 26 6;
#X connect 7 0 13 0;
#X connect 7 1 26 7;
#X connect 10 0 26 0;
#X connect 15 0 26 0;
#X connect 16 0 9 0;
#X connect 16 1 26 1;
#X connect 17 0 12 0;
#X connect 17 1 26 5;
#X connect 18 1 32 0;
#X connect 18 3 21 0;
#X connect 18 5 29 0;
#X connect 18 7 30 0;
#X connect 19 0 26 4;
#X connect 20 0 4 0;
#X connect 23 0 24 0;
#X connect 26 0 2 0;
#X connect 27 0 15 0;
#X connect 27 1 5 0;
#X connect 27 2 19 0;
#X connect 27 3 6 0;
#X connect 27 4 28 0;
#X connect 28 0 26 8;
#X connect 31 0 17 0;
#X connect 33 0 16 0;
#X connect 34 0 7 0;
#X restore 141 979 pd numbercruncher;
#X obj 141 1100 iemguts/canvasargs;
#X obj 141 900 iemguts/canvasargs;
#X obj 48 810 loadbang;
#X obj 141 948 list trim;
#X obj 141 925 list;
#X obj 48 854 t b b, f 16;
#X msg 48 937 1;
#X obj 141 1055 spigot;
#X text 141 1125 v1.3 \, 2015 Liam Goodacre \, liam.goodacre@gmail.com
;
#X text 182 1048 This spigot is necessary because if one [canvasargs]
object feeds the creation argument straight into another it will cause
PD to crash.;
#X text 208 802 🎰 argument handling 👇;
#X obj 720 790 bng 15 250 50 0 empty empty empty 17 7 0 10 #fcfcfc
#000000 #000000;
#X connect 1 0 8 0;
#X connect 1 0 17 0;
#X connect 3 0 59 0;
#X connect 5 0 3 0;
#X connect 6 0 7 0;
#X connect 7 0 30 0;
#X connect 8 0 10 0;
#X connect 9 0 4 0;
#X connect 11 0 5 0;
#X connect 11 0 13 0;
#X connect 12 0 11 1;
#X connect 13 0 15 0;
#X connect 14 0 15 1;
#X connect 15 0 29 0;
#X connect 17 0 16 0;
#X connect 17 0 18 1;
#X connect 18 0 22 0;
#X connect 19 0 11 0;
#X connect 20 0 18 0;
#X connect 21 0 19 0;
#X connect 22 0 48 0;
#X connect 22 1 23 0;
#X connect 23 0 19 0;
#X connect 31 0 32 0;
#X connect 31 0 33 0;
#X connect 33 0 1 0;
#X connect 36 0 20 0;
#X connect 38 0 3 1;
#X connect 39 0 57 0;
#X connect 40 0 42 0;
#X connect 40 1 41 0;
#X connect 47 0 50 0;
#X connect 48 0 21 0;
#X connect 49 0 48 1;
#X connect 50 0 51 0;
#X connect 50 1 49 1;
#X connect 51 0 49 0;
#X connect 54 0 56 0;
#X connect 56 0 55 0;
#X connect 57 0 40 0;
#X connect 57 1 43 0;
#X connect 57 2 45 0;
#X connect 57 3 46 0;
#X connect 57 4 58 0;
#X connect 60 0 74 0;
#X connect 62 0 70 0;
#X connect 64 0 67 0;
#X connect 65 0 68 0;
#X connect 66 0 62 0;
#X connect 67 0 66 0;
#X connect 68 0 69 0;
#X connect 68 1 64 0;
#X connect 69 0 70 1;
#X connect 70 0 63 0;
#X connect 74 0 13 0;
#X coords 0 -1 1 1 194 174 2 98 78;
