#N canvas -8 -8 1538 787 12;
#X obj 110 60 inlet~;
#X obj 280 60 inlet~;
#X obj 120 250 outlet~;
#X obj 280 250 outlet~;
#X obj 440 60 hsl 128 15 0 2 0 0 \$0-from-amp \$0-to-amp amp -2 -8
0 10 #fcfcfc #000000 #000000 2450 1;
#X msg 440 100 1;
#X obj 140 150 *~;
#X obj 310 160 *~;
#X obj 580 60 bng 15 250 50 0 empty empty empty 17 7 0 10 #fcfcfc #000000
#000000;
#X obj 930 40 cnv 15 580 387 empty empty empty 20 12 0 14 #e0e0e0 #404040
0;
#N canvas 36 76 1346 690 numbercruncher 0;
#X obj 95 72 inlet;
#X obj 142 288 loadbang;
#X obj 291 598 outlet;
#X text 689 273 Receives GOP values and sends them on again to the
saver;
#X obj 742 351 t b f;
#X msg 215 346 symbol flt;
#X msg 365 346 symbol flt;
#X text 795 136 Sends creation argument list to the GOP objects;
#X obj 24 346 r \$0-store-args;
#X obj 719 387 s \$0-store-args;
#X text 272 32 args: file duration(in beats \, sets loop to true) quantize
(ticks), f 70;
#X msg 290 346 symbol flt;
#X obj 142 313 t b b b b b, f 47;
#X msg 444 342 symbol flt;
#X obj 260 160 s \$0-to-amp;
#X obj 740 310 r \$0-from-amp;
#X msg 140 380 symbol sym;
#X obj 95 106 unpack s s s f s f s f s f, f 71;
#X obj 150 160 s \$0-to-field;
#X obj 869 394 s \$0-store-args;
#X obj 892 358 t b s;
#X obj 291 560 pack s s s f s f s f s f, f 68;
#X obj 890 317 r \$0-from-field;
#X connect 0 0 17 0;
#X connect 1 0 12 0;
#X connect 4 0 9 0;
#X connect 4 1 21 3;
#X connect 5 0 21 2;
#X connect 6 0 21 6;
#X connect 8 0 21 0;
#X connect 11 0 21 4;
#X connect 12 0 16 0;
#X connect 12 1 5 0;
#X connect 12 2 11 0;
#X connect 12 3 6 0;
#X connect 12 4 13 0;
#X connect 13 0 21 8;
#X connect 15 0 4 0;
#X connect 16 0 21 0;
#X connect 17 1 18 0;
#X connect 17 3 14 0;
#X connect 20 0 19 0;
#X connect 20 1 21 1;
#X connect 21 0 2 0;
#X connect 22 0 20 0;
#X restore 1059 227 pd numbercruncher;
#X obj 1059 348 iemguts/canvasargs;
#X obj 1059 148 iemguts/canvasargs;
#X obj 966 58 loadbang;
#X obj 1059 196 list trim;
#X obj 1059 173 list;
#X obj 966 102 t b b, f 16;
#X msg 966 185 1;
#X obj 1059 303 spigot;
#X text 1059 373 v1.3 \, 2015 Liam Goodacre \, liam.goodacre@gmail.com
;
#X text 1100 296 This spigot is necessary because if one [canvasargs]
object feeds the creation argument straight into another it will cause
PD to crash.;
#X text 1126 50 🎰 argument handling 👇;
#X symbolatom 440 30 19 0 0 0 - #0-to-field #0-from-field, f 19;
#X obj 210 290 r \$0-from-field;
#X obj 250 360 sprintf set %s-right;
#X obj 80 360 sprintf set %s-left;
#X obj 320 120 r \$0-from-amp;
#X obj 170 60 r \$0-from-amp;
#X obj 140 190 throw~;
#X obj 380 250 throw~;
#X obj 580 320 r \$0-from-amp;
#X obj 565 445 savestate, f 11;
#X text 655 445 👈 bangs when parent is saved;
#X obj 635 475 s \$0-save-state;
#X obj 565 285 r \$0-save-state;
#X obj 565 365 f;
#X obj 560 570 s \$0-to-amp;
#X obj 565 405 pack f s;
#X obj 620 370 r \$0-from-field;
#X obj 566 510 unpack f s;
#X obj 630 540 s \$0-to-field;
#X connect 0 0 2 0;
#X connect 0 0 6 0;
#X connect 1 0 3 0;
#X connect 1 0 7 0;
#X connect 5 0 4 0;
#X connect 6 0 28 0;
#X connect 7 0 29 0;
#X connect 8 0 5 0;
#X connect 10 0 18 0;
#X connect 12 0 15 0;
#X connect 13 0 16 0;
#X connect 14 0 10 0;
#X connect 15 0 14 0;
#X connect 16 0 17 0;
#X connect 16 1 12 0;
#X connect 17 0 18 1;
#X connect 18 0 11 0;
#X connect 23 0 24 0;
#X connect 23 0 25 0;
#X connect 24 0 29 0;
#X connect 25 0 28 0;
#X connect 26 0 7 1;
#X connect 27 0 6 1;
#X connect 30 0 35 1;
#X connect 31 0 39 0;
#X connect 31 1 33 0;
#X connect 34 0 35 0;
#X connect 35 0 37 0;
#X connect 37 0 31 0;
#X connect 38 0 37 1;
#X connect 39 0 36 0;
#X connect 39 1 40 0;
#X coords 0 -1 1 1 167 56 2 432 27;
