#N canvas 0 0 1522 772 12;
#X obj 1110 480 *~ 0.5;
#X obj 40 320 hsl 128 15 -1 1 0 1 \$0-from-pan \$0-to-pan pan -2 -8
0 10 #fcfcfc #000000 #000000 6350 1;
#X msg 540 490 0;
#X obj 40 290 hsl 128 15 0 2 0 1 \$0-from-amp \$0-to-amp amp -2 -8
0 10 #fcfcfc #000000 #000000 3575 1;
#X obj 180 320 bng 15 250 50 0 \$0-reset-pan empty empty 17 7 0 10
#fcfcfc #000000 #000000;
#X obj 180 290 tgl 15 1 \$0-from-mute \$0-to-mute empty 17 7 0 10 #fcfcfc
#000000 #000000 0 1;
#X obj 870 240 *~;
#X obj 890 146 t b f;
#X msg 890 178 1;
#X obj 890 210 -;
#X obj 870 70 inlet~;
#X obj 1150 440 r \$0-from-amp;
#X obj 540 520 s \$0-to-pan;
#X obj 540 460 r \$0-reset-pan;
#X obj 890 114 r \$0-from-mute;
#X obj 130 130 loadbang;
#X obj 130 160 t b b;
#X obj 129 204 s \$0-to-mute;
#X obj 860 500 *~ 0.5;
#X obj 900 460 r \$0-from-amp;
#X obj 1042 236 *~;
#X obj 1062 142 t b f;
#X msg 1062 174 1;
#X obj 1062 206 -;
#X obj 1042 66 inlet~;
#X obj 1062 110 r \$0-from-mute;
#X obj 1120 160 r \$0-from-pan;
#X obj 901 281 r \$0-from-pan;
#X obj 1100 360 *~;
#X obj 1120 250 clip 0 1;
#X obj 1120 210 * -1;
#X obj 1120 280 - 1;
#X obj 1120 320 abs;
#X obj 860 440 *~;
#X obj 900 320 clip 0 1;
#X obj 900 350 - 1;
#X obj 900 390 abs;
#X obj 635 279 s \$0-to-amp;
#X msg 634 207 0.5;
#X obj 52 581 cnv 15 580 387 empty empty empty 20 12 0 14 #e0e0e0 #404040
0;
#N canvas 36 76 1346 690 numbercruncher 0;
#X obj 95 72 inlet;
#X obj 142 288 loadbang;
#X obj 291 598 outlet;
#X text 689 273 Receives GOP values and sends them on again to the
saver;
#X obj 742 351 t b f;
#X msg 215 346 symbol flt;
#X msg 365 346 symbol flt;
#X text 795 136 Sends creation argument list to the GOP objects;
#X obj 583 391 s \$0-store-args;
#X obj 24 346 r \$0-store-args;
#X obj 719 387 s \$0-store-args;
#X obj 884 391 s \$0-store-args;
#X text 272 32 args: file duration(in beats \, sets loop to true) quantize
(ticks), f 70;
#X obj 898 349 t b f;
#X msg 290 346 symbol flt;
#X obj 142 313 t b b b b b, f 47;
#X msg 444 342 symbol flt;
#X obj 95 106 unpack s f s f s f s f s f, f 71;
#X obj 140 200 s \$0-to-fx1;
#X obj 198 162 s \$0-to-amp;
#X obj 328 214 s \$0-to-pan;
#X obj 606 350 t b f;
#X obj 291 560 pack s f s f s f s f s f, f 68;
#X msg 140 380 symbol flt;
#X obj 606 321 r \$0-from-fx1;
#X obj 740 310 r \$0-from-amp;
#X obj 890 310 r \$0-from-pan;
#X obj 430 210 s \$0-to-mute;
#X obj 1024 391 s \$0-store-args;
#X obj 1038 349 t b f;
#X obj 1030 310 r \$0-from-mute;
#X connect 0 0 17 0;
#X connect 1 0 15 0;
#X connect 4 0 10 0;
#X connect 4 1 22 3;
#X connect 5 0 22 2;
#X connect 6 0 22 6;
#X connect 9 0 22 0;
#X connect 13 0 11 0;
#X connect 13 1 22 5;
#X connect 14 0 22 4;
#X connect 15 0 23 0;
#X connect 15 1 5 0;
#X connect 15 2 14 0;
#X connect 15 3 6 0;
#X connect 15 4 16 0;
#X connect 16 0 22 8;
#X connect 17 1 18 0;
#X connect 17 3 19 0;
#X connect 17 5 20 0;
#X connect 17 7 27 0;
#X connect 21 0 8 0;
#X connect 21 1 22 1;
#X connect 22 0 2 0;
#X connect 23 0 22 0;
#X connect 24 0 21 0;
#X connect 25 0 4 0;
#X connect 26 0 13 0;
#X connect 29 0 28 0;
#X connect 29 1 22 7;
#X connect 30 0 29 0;
#X restore 181 768 pd numbercruncher;
#X obj 181 889 iemguts/canvasargs;
#X obj 181 689 iemguts/canvasargs;
#X obj 88 599 loadbang;
#X obj 181 737 list trim;
#X obj 181 714 list;
#X obj 88 643 t b b, f 16;
#X msg 88 726 1;
#X obj 181 844 spigot;
#X text 181 914 v1.3 \, 2015 Liam Goodacre \, liam.goodacre@gmail.com
;
#X text 222 837 This spigot is necessary because if one [canvasargs]
object feeds the creation argument straight into another it will cause
PD to crash.;
#X text 248 591 🎰 argument handling 👇;
#X obj 870 570 outlet~;
#X obj 1110 590 outlet~;
#X connect 0 0 53 0;
#X connect 2 0 12 0;
#X connect 6 0 33 0;
#X connect 7 0 8 0;
#X connect 7 1 9 1;
#X connect 8 0 9 0;
#X connect 9 0 6 1;
#X connect 10 0 6 0;
#X connect 11 0 0 1;
#X connect 13 0 2 0;
#X connect 14 0 7 0;
#X connect 15 0 16 0;
#X connect 16 0 17 0;
#X connect 16 1 17 0;
#X connect 18 0 52 0;
#X connect 19 0 18 1;
#X connect 20 0 28 0;
#X connect 21 0 22 0;
#X connect 21 1 23 1;
#X connect 22 0 23 0;
#X connect 23 0 20 1;
#X connect 24 0 20 0;
#X connect 25 0 21 0;
#X connect 26 0 30 0;
#X connect 27 0 34 0;
#X connect 28 0 0 0;
#X connect 29 0 31 0;
#X connect 30 0 29 0;
#X connect 31 0 32 0;
#X connect 32 0 28 1;
#X connect 33 0 18 0;
#X connect 34 0 35 0;
#X connect 35 0 36 0;
#X connect 36 0 33 1;
#X connect 38 0 37 0;
#X connect 40 0 48 0;
#X connect 42 0 45 0;
#X connect 43 0 46 0;
#X connect 44 0 40 0;
#X connect 45 0 44 0;
#X connect 46 0 47 0;
#X connect 46 1 42 0;
#X connect 47 0 48 1;
#X connect 48 0 41 0;
#X coords 0 -1 1 1 167 72 2 32 277;
