#N canvas 0 0 1522 772 10;
#X obj 10 20 cnv 15 343 78 empty empty empty 20 12 0 14 #c0c0c0 #404040
0;
#X obj 509 33 cnv 15 844 354 empty empty empty 20 12 0 14 #e0e0e0 #404040
0;
#X obj 1758 30 cnv 15 811 690 empty empty empty 20 12 0 14 #e0e0e0
#404040 0;
#X obj 180 577 cnv 15 95 34 empty empty empty 20 12 0 14 #ff80ff #404040
0;
#X obj 197 898 outlet;
#X obj 202 61 tgl 30 0 \$0-from-looptoggle \$0-to-looptoggle loop 3
12 0 10 #fcfcfc #000000 #000000 0 1;
#X obj 53 61 hsl 140 30 0 193 0 0 \$0-from-playslider \$0-playslider
empty -2 -8 0 10 #fcfcfc #000000 #000000 0 1;
#X obj 1407 86 r ticks;
#X obj 1407 142 spigot;
#X obj 20 61 tgl 30 0 \$0-playtoggle \$0-playtoggle play 3 12 0 10
#fcfcfc #000000 #000000 0 1;
#X obj 1438 118 r \$0-playtoggle;
#X obj 1516 227 counter, f 23;
#X obj 1516 311 s \$0-playslider;
#X floatatom 1516 285 5 0 0 0 - - -, f 5;
#X obj 1628 310 s \$0-playslider;
#X msg 1627 285 range 0 \$1;
#X obj 1627 262 r \$0-length;
#X obj 195 585 cyclone/seq;
#X obj 1859 72 r \$0-loadfile;
#X obj 1807 536 s \$0-to-seq;
#X obj 194 546 r \$0-to-seq;
#X obj 257 620 bng 15 250 50 0 empty empty empty 17 7 0 10 #fcfcfc
#000000 #000000;
#X obj 1875 386 s \$0-to-seq;
#X msg 1875 324 start -1;
#X obj 2276 514 counter;
#X floatatom 2443 635 14 0 0 0 - - -, f 14;
#X obj 1780 398 t b 0;
#X obj 1780 589 f, f 8;
#X text 3024 1534 hi;
#X obj 2443 670 s \$0-length;
#X obj 1859 108 t 1 b b b 0, f 99;
#X obj 223 809 midiparse;
#X msg 1407 237 tick;
#X obj 537 171 gate 2, f 14;
#X obj 537 134 + 1;
#X obj 555 253 s \$0-playtoggle;
#X msg 537 286 start -1;
#X obj 537 320 s \$0-to-seq;
#X obj 258 647 s \$0-endbang;
#X obj 1780 356 r \$0-endbang;
#X obj 567 134 r \$0-endbang;
#X obj 537 218 t b 0 b;
#X msg 1123 336 start -1;
#X obj 1112 357 s \$0-to-seq;
#X obj 1407 281 s \$0-to-seq;
#X obj 1407 182 t b b;
#X obj 1859 450 metro 1;
#X msg 1877 416 0;
#X obj 1857 476 t b b;
#X msg 1806 506 tick;
#X obj 2346 174 s \$0-playtoggle;
#X text 1478 48 playback and slider control 👇;
#X obj 205 844 gate;
#X obj 43 630 r \$0-loadfile;
#X msg 43 660 0;
#X obj 112 661 r \$0-endbang;
#X msg 112 694 1;
#X obj 1575 81 r \$0-to-seq;
#X obj 1574 114 route start;
#X msg 1575 171 0;
#X obj 1581 143 bng 15 250 50 0 empty empty empty 17 7 0 10 #fcfcfc
#000000 #000000;
#X msg 1655 196 99999;
#X obj 1127 80 r ticks;
#X obj 1127 138 i;
#X floatatom 243 75 5 0 0 2 duration #0-to-duration-n #0-from-duration-n
, f 5;
#X obj 1127 109 spigot;
#X obj 1127 196 change;
#X msg 2154 325 read assets/upsidedown.mid;
#X text 13 240 args: file duration(in beats \, sets loop to true) quantize
(ticks), f 47;
#X obj 22 291 inlet;
#X obj 80 290 bng 15 250 50 0 empty empty empty 17 7 0 10 #fcfcfc #000000
#000000;
#X symbolatom 20 40 29 0 0 2 filepath #0-to-filepath #0-from-filepath
, f 29;
#X obj 2011 142 r \$0-from-filepath;
#X obj 2033 269 list trim;
#X obj 2008 188 t b s;
#X obj 2006 314 s \$0-loadfile;
#X obj 1980 265 bng 15 250 50 0 empty empty empty 17 7 0 10 #fcfcfc
#000000 #000000;
#X obj 2033 221 list prepend set read, f 12;
#X text 2077 36 📂 FILE LOADING 👇;
#X obj 537 101 r \$0-from-looptoggle;
#X obj 1195 79 r \$0-from-looptoggle;
#X obj 279 76 hsl 64 15 0 5 0 0 \$0-from-duration-unit \$0-to-duration-unit
bars 6 6 0 10 #fcfcfc #000000 #808080 0 1;
#X obj 740 146 r \$0-from-duration-unit;
#X obj 740 288 s \$0-to-duration-unit;
#X obj 740 218 sub/tick-calculator;
#X obj 759 181 r \$0-from-duration-n;
#X obj 759 254 s \$0-duration-ticks;
#X obj 1166 135 r \$0-duration-ticks;
#X obj 1127 225 sel 0;
#X obj 1127 167 %;
#X obj 1127 254 s \$0-start;
#X obj 1128 278 r \$0-start;
#X text 1092 53 ⏰ RETRIGGER OFF OF TICKS % DURATION👇;
#X text 545 64 Stop if not looping 👇;
#X obj 92 434 s \$0-start;
#X obj 173 394 s \$0-playtoggle;
#X msg 175 363 0;
#X obj 16 494 s \$0-to-filepath;
#X obj 69 462 s \$0-to-looptoggle;
#X obj 106 374 t b 1;
#X obj 22 328 route read loop bang start stop;
#X msg 20 431 set \$1;
#X obj 12 357 t b s;
#X obj 210 778 cyclone/midiflush;
#X obj 310 509 r \$0-playtoggle;
#X obj 310 534 sel 0;
#X obj 304 584 s \$0-flush;
#X obj 236 741 r \$0-flush;
#X obj 40 737 s \$0-flush;
#X obj 37 707 bng 15 250 50 0 empty empty empty 17 7 0 10 #fcfcfc #000000
#000000;
#X obj 1148 322 s \$0-flush;
#X obj 1125 302 t b b;
#X obj 268 392 s \$0-to-looptoggle;
#X obj 590 720 savestate, f 11;
#X text 680 720 👈 bangs when parent is saved;
#X obj 660 750 s \$0-save-state;
#X obj 590 560 r \$0-save-state;
#X obj 590 640 f;
#X obj 558 757 t b l;
#X obj 666 815 s \$0-to-filepath;
#X obj 646 645 r \$0-from-filepath;
#X obj 606 595 r \$0-from-duration-n;
#X obj 586 875 s \$0-to-duration-n;
#X obj 626 845 s \$0-to-duration-unit;
#X obj 616 625 r \$0-from-duration-unit;
#X obj 591 785 unpack f f s;
#X obj 590 680 pack f f s;
#X connect 7 0 8 0;
#X connect 8 0 45 0;
#X connect 10 0 8 1;
#X connect 11 0 13 0;
#X connect 13 0 12 0;
#X connect 15 0 14 0;
#X connect 16 0 15 0;
#X connect 17 0 103 0;
#X connect 17 1 21 0;
#X connect 18 0 30 0;
#X connect 20 0 17 0;
#X connect 21 0 38 0;
#X connect 23 0 22 0;
#X connect 24 0 27 1;
#X connect 25 0 29 0;
#X connect 26 0 27 0;
#X connect 26 1 46 0;
#X connect 27 0 25 0;
#X connect 30 0 46 0;
#X connect 30 1 23 0;
#X connect 30 2 67 0;
#X connect 30 3 24 2;
#X connect 30 4 25 0;
#X connect 30 4 50 0;
#X connect 31 0 52 1;
#X connect 32 0 44 0;
#X connect 33 0 41 0;
#X connect 34 0 33 0;
#X connect 36 0 37 0;
#X connect 39 0 26 0;
#X connect 40 0 33 1;
#X connect 41 0 36 0;
#X connect 41 1 35 0;
#X connect 42 0 43 0;
#X connect 45 0 32 0;
#X connect 45 1 11 0;
#X connect 46 0 48 0;
#X connect 47 0 46 0;
#X connect 48 0 49 0;
#X connect 48 1 24 0;
#X connect 49 0 19 0;
#X connect 52 0 4 0;
#X connect 53 0 54 0;
#X connect 54 0 52 0;
#X connect 54 0 109 0;
#X connect 55 0 56 0;
#X connect 56 0 52 0;
#X connect 57 0 58 0;
#X connect 58 0 60 0;
#X connect 59 0 11 2;
#X connect 60 0 59 0;
#X connect 61 0 11 4;
#X connect 62 0 65 0;
#X connect 63 0 89 0;
#X connect 65 0 63 0;
#X connect 66 0 88 0;
#X connect 67 0 22 0;
#X connect 69 0 100 0;
#X connect 70 0 100 0;
#X connect 72 0 74 0;
#X connect 73 0 67 0;
#X connect 74 0 75 0;
#X connect 74 1 77 0;
#X connect 76 0 75 0;
#X connect 77 0 73 0;
#X connect 79 0 34 0;
#X connect 80 0 65 1;
#X connect 82 0 84 0;
#X connect 84 0 83 0;
#X connect 84 1 86 0;
#X connect 85 0 84 1;
#X connect 87 0 89 1;
#X connect 88 0 90 0;
#X connect 89 0 66 0;
#X connect 91 0 111 0;
#X connect 96 0 95 0;
#X connect 96 0 112 0;
#X connect 99 0 94 0;
#X connect 99 1 95 0;
#X connect 100 0 102 0;
#X connect 100 1 98 0;
#X connect 100 2 99 0;
#X connect 100 3 99 0;
#X connect 100 4 96 0;
#X connect 101 0 97 0;
#X connect 102 0 97 0;
#X connect 102 1 101 0;
#X connect 103 0 31 0;
#X connect 104 0 105 0;
#X connect 105 0 106 0;
#X connect 107 0 103 0;
#X connect 109 0 108 0;
#X connect 111 0 42 0;
#X connect 111 1 110 0;
#X connect 113 0 118 0;
#X connect 113 1 115 0;
#X connect 116 0 117 0;
#X connect 117 0 126 0;
#X connect 118 1 125 0;
#X connect 120 0 126 2;
#X connect 121 0 117 1;
#X connect 124 0 126 1;
#X connect 125 0 122 0;
#X connect 125 1 123 0;
#X connect 125 2 119 0;
#X connect 126 0 113 0;
#X coords 0 -1 1 1 348 82 2 8 18;
