#N canvas 374 0 1105 780 10;
#X obj 12 14 cnv 15 190 166 empty empty empty 10 10 0 14 #c0c0c0 #fcfcfc
0;
#X obj 38 158 cnv 15 160 19 empty \$0highlight-cnv empty 20 12 0 14
#f0f0f0 #000000 0;
#X obj 40 20 hsl 128 15 0 1 0 0 empty \$0playhead0 empty -2 -8 0 10
#fc9898 #000000 #000000 5461 1;
#X obj 20 20 vsl 15 150 1 0 0 0 \$0hue to\$0hue empty 0 -9 0 10 #ff99bd
#000000 #000000 894 1;
#X obj 180 20 bng 15 250 50 0 \$0button0 \$0button0 empty 17 7 0 10
#fc9898 #fcfcfc #000000;
#X obj 180 40 bng 15 250 50 0 \$0button1 empty empty 17 7 0 10 #fce498
#fcfcfc #000000;
#X obj 180 60 bng 15 250 50 0 \$0button2 empty empty 17 7 0 10 #ccfc98
#fcfcfc #000000;
#X obj 180 80 bng 15 250 50 0 \$0button3 empty empty 17 7 0 10 #98fcb0
#fcfcfc #000000;
#X obj 180 100 bng 15 250 50 0 \$0button4 empty empty 17 7 0 10 #98fcfc
#fcfcfc #000000;
#X obj 180 120 bng 15 250 50 0 \$0button5 empty empty 17 7 0 10 #98b0fc
#fcfcfc #000000;
#X obj 40 40 hsl 128 15 0 1 0 0 empty \$0playhead1 empty -2 -8 0 10
#fce498 #000000 #000000 0 1;
#X obj 40 60 hsl 128 15 0 1 0 0 empty \$0playhead2 empty -2 -8 0 10
#ccfc98 #000000 #000000 0 1;
#X obj 40 80 hsl 128 15 0 1 0 0 empty \$0playhead3 empty -2 -8 0 10
#98fcb0 #000000 #000000 0 1;
#X obj 40 100 hsl 128 15 0 1 0 0 empty \$0playhead4 empty -2 -8 0 10
#98fcfc #000000 #000000 0 1;
#X obj 40 120 hsl 128 15 0 1 0 0 empty \$0playhead5 empty -2 -8 0 10
#98b0fc #000000 #000000 0 1;
#X msg 630 219 pos \$1 \$2;
#X obj 630 192 pack f f, f 15;
#X floatatom 717 100 5 0 0 0 - - -, f 5;
#X obj 717 132 * 20, f 5;
#X obj 40 140 hsl 128 15 0 1 0 0 empty \$0playhead6 empty -2 -8 0 10
#cc98fc #000000 #000000 0 1;
#X obj 180 140 bng 15 250 50 0 \$0button6 empty empty 17 7 0 10 #cc98fc
#fcfcfc #000000;
#X obj 40 160 hsl 128 15 0 1 0 0 empty \$0playhead7 empty -2 -8 0 10
#fc98e4 #000000 #000000 0 1;
#X obj 180 160 bng 15 250 50 0 \$0button7 empty empty 17 7 0 10 #fc98e4
#fcfcfc #000000;
#X obj 630 91 i;
#X obj 630 118 t b a;
#X obj 630 246 s \$0highlight-cnv;
#X obj 630 64 * 7.9;
#X obj 334 17 inlet hue;
#X obj 717 163 + 18;
#X msg 630 156 38;
#X text 219 18 40 20;
#X text 219 43 40 40;
#X text 259 17 180 20;
#X obj 1266 408 r \$0notes;
#X obj 1265 447 outlet notes;
#X obj 336 222 s to\$0hue, f 14;
#X obj 334 135 s to\$0hue, f 14;
#X obj 336 172 r \$0hue;
#X obj 630 37 r \$0hue;
#X text 470 136 stave highlighting 👉;
#X obj 33 448 outlet stave0;
#X text 20 201 📝todo: dynamic number of staves;
#X obj 32 407 sub/stave-sender \$0 0;
#X obj 196 406 sub/stave-sender \$0 1;
#X obj 356 404 sub/stave-sender \$0 2;
#X obj 508 404 sub/stave-sender \$0 3;
#X obj 662 404 sub/stave-sender \$0 4;
#X obj 809 406 sub/stave-sender \$0 5;
#X obj 952 406 sub/stave-sender \$0 6;
#X obj 1102 404 sub/stave-sender \$0 7;
#X obj 336 197 sub/rainbowmaker;
#X obj 334 100 sub/fmod 1;
#X connect 15 0 25 0;
#X connect 16 0 15 0;
#X connect 17 0 18 0;
#X connect 18 0 28 0;
#X connect 23 0 24 0;
#X connect 24 0 29 0;
#X connect 24 1 17 0;
#X connect 26 0 23 0;
#X connect 27 0 51 0;
#X connect 28 0 16 1;
#X connect 29 0 16 0;
#X connect 33 0 34 0;
#X connect 37 0 50 0;
#X connect 38 0 26 0;
#X connect 42 0 40 0;
#X connect 43 0 40 0;
#X connect 44 0 40 0;
#X connect 45 0 40 0;
#X connect 46 0 40 0;
#X connect 47 0 40 0;
#X connect 48 0 40 0;
#X connect 49 0 40 0;
#X connect 50 0 35 0;
#X connect 51 0 36 0;
#X coords 0 -1 1 1 194 174 2 10 10;
