#N canvas 760 -8 786 795 10;
#X msg 567 224 read assets/beat.mid;
#X obj 53 558 outlet;
#X obj 166 124 tgl 15 0 \$0-looptoggle empty loop 17 5 0 10 #fcfcfc
#000000 #000000 0 1;
#X obj 931 321 r \$0-looptoggle;
#X obj 22 129 hsl 127 16 0 342 0 0 \$0-from-playslider \$0-playslider
empty -2 -8 0 10 #fcfcfc #000000 #000000 1326 1;
#X obj 49 304 mrpeach/midifile;
#X obj 567 256 s \$0-to-midifile;
#X obj 49 267 r \$0-to-midifile;
#X msg 483 161 0;
#X obj 142 406 s \$0-length;
#X obj 539 335 s \$0-to-midifile;
#X obj 166 107 bng 15 250 50 0 \$0-loadfile empty load 17 7 0 10 #fcfcfc
#000000 #000000;
#X obj 220 381 bng 15 250 50 0 empty empty empty 17 7 0 10 #fcfcfc
#000000 #000000;
#X obj 142 350 route end;
#X msg 142 378 \$2;
#X obj 539 300 metro 0.1;
#X obj 539 188 t 1 b;
#X obj 1050 223 r \$0-length;
#X obj 563 151 r \$0-loadfile;
#X obj 774 122 r ticks;
#X obj 774 218 bang;
#X obj 774 178 spigot;
#X obj 166 141 tgl 15 0 \$0-playtoggle \$0-playtoggle play 17 5 0 10
#fcfcfc #000000 #000000 1 1;
#X obj 805 154 r \$0-playtoggle;
#X obj 773 421 s \$0-to-midifile;
#X obj 774 260 counter, f 47;
#X obj 774 344 s \$0-playslider;
#X floatatom 774 318 5 0 0 0 - - -, f 5;
#X obj 774 375 r \$0-from-playslider;
#X obj 220 405 s \$0-loadendbang;
#X obj 914 168 r \$0-loadendbang;
#X obj 483 116 r \$0-loadendbang;
#X obj 982 190 r \$0-endbang;
#X obj 539 415 s \$0-playslider;
#X msg 538 390 range 0 \$1;
#X obj 538 367 r \$0-length;
#X obj 931 387 gate 2, f 21;
#X obj 931 354 + 1;
#X obj 931 483 s \$0-playtoggle;
#X obj 1054 420 s \$0-endbang;
#X obj 958 455 s \$0-endbang;
#X obj 1054 356 bng 15 250 50 0 empty empty empty 17 7 0 10 #fcfcfc
#000000 #000000;
#X obj 931 420 t 0 b;
#X obj 728 396 t b f;
#X text 927 560 note off events;
#X obj 492 685 print;
#N canvas 544 239 846 463 note-parse 0;
#X obj 40 80 route 144 145 146 147 148 149 150 151 152 153 154 155
156 157 158 159, f 76;
#X obj 517 114 route 128 129 130 131 132 133 134 135 136 137 138 139
140 141 142 143, f 76;
#X obj 13 26 inlet;
#X obj 153 165 outlet;
#X obj 440 199 unpack;
#X msg 468 252 0;
#X obj 422 292 pack;
#X obj 413 354 outlet;
#X connect 0 0 3 0;
#X connect 0 1 3 0;
#X connect 0 2 3 0;
#X connect 0 3 3 0;
#X connect 0 4 3 0;
#X connect 0 5 3 0;
#X connect 0 6 3 0;
#X connect 0 7 3 0;
#X connect 0 8 3 0;
#X connect 0 9 3 0;
#X connect 0 10 3 0;
#X connect 0 11 3 0;
#X connect 0 12 3 0;
#X connect 0 13 3 0;
#X connect 0 14 3 0;
#X connect 0 15 3 0;
#X connect 0 16 1 0;
#X connect 1 0 4 0;
#X connect 1 1 4 0;
#X connect 1 2 4 0;
#X connect 1 3 4 0;
#X connect 1 4 4 0;
#X connect 1 5 4 0;
#X connect 1 6 4 0;
#X connect 1 7 4 0;
#X connect 1 8 4 0;
#X connect 1 9 4 0;
#X connect 1 10 4 0;
#X connect 1 11 4 0;
#X connect 1 12 4 0;
#X connect 1 13 4 0;
#X connect 1 14 4 0;
#X connect 1 15 4 0;
#X connect 2 0 0 0;
#X connect 4 0 6 0;
#X connect 4 1 5 0;
#X connect 5 0 6 1;
#X connect 6 0 7 0;
#X restore 38 454 pd note-parse;
#X connect 0 0 6 0;
#X connect 3 0 37 0;
#X connect 5 0 46 0;
#X connect 5 2 13 0;
#X connect 7 0 5 0;
#X connect 8 0 15 0;
#X connect 12 0 29 0;
#X connect 13 0 12 0;
#X connect 13 0 14 0;
#X connect 14 0 9 0;
#X connect 15 0 10 0;
#X connect 16 0 15 0;
#X connect 16 1 0 0;
#X connect 17 0 25 4;
#X connect 18 0 16 0;
#X connect 19 0 21 0;
#X connect 20 0 25 0;
#X connect 21 0 20 0;
#X connect 23 0 21 1;
#X connect 25 0 27 0;
#X connect 25 3 41 0;
#X connect 27 0 26 0;
#X connect 28 0 43 0;
#X connect 30 0 25 2;
#X connect 31 0 8 0;
#X connect 32 0 25 3;
#X connect 34 0 33 0;
#X connect 35 0 34 0;
#X connect 36 0 42 0;
#X connect 36 1 39 0;
#X connect 37 0 36 0;
#X connect 41 0 36 1;
#X connect 42 0 38 0;
#X connect 42 1 40 0;
#X connect 43 0 24 0;
#X connect 43 1 24 0;
#X connect 46 0 1 0;
#X connect 46 1 1 0;
#X coords 0 -1 1 1 204 60 2 13 102;
