#N canvas 1008 285 900 588 10;
#X obj 281 378 s;
#X msg 301 327 symbol \$1notes;
#X obj 54 117 s \$0id;
#X obj 110 117 s \$0stave;
#X obj 302 292 r \$0id;
#X obj 154 325 r \$0stave;
#X obj 109 302 r \$0id;
#X obj 183 117 s \$0ready;
#X obj 87 274 r \$0ready;
#X obj 70 466 s;
#X msg 88 402 symbol \$2position\$1;
#X obj 54 26 inlet h-stave, f 7;
#X obj 69 222 inlet position, f 8;
#X obj 282 230 inlet notes, f 5;
#X obj 55 79 route id stave ready hue, f 38;
#X obj 502 306 -;
#X obj 520 143 r \$0stave;
#X obj 501 467 outlet distance;
#X obj 502 418 abs;
#X text 567 183 offset to centre of stave, f 14;
#X obj 520 181 - 0.5;
#X obj 363 146 * 8;
#X text 394 146 num staves;
#X obj 502 358 expr if($f1 > $f2/2 \, $f1 - $f2 \, $f1);
#X msg 720 298 8;
#X obj 718 243 loadbang;
#X text 636 294 num staves;
#X obj 87 371 pack f f f;
#X connect 1 0 0 1;
#X connect 4 0 1 0;
#X connect 5 0 27 2;
#X connect 6 0 27 1;
#X connect 8 0 27 0;
#X connect 10 0 9 1;
#X connect 11 0 14 0;
#X connect 12 0 9 0;
#X connect 13 0 0 0;
#X connect 14 0 2 0;
#X connect 14 1 3 0;
#X connect 14 2 7 0;
#X connect 14 3 21 0;
#X connect 15 0 23 0;
#X connect 16 0 20 0;
#X connect 18 0 17 0;
#X connect 20 0 15 1;
#X connect 21 0 15 0;
#X connect 23 0 18 0;
#X connect 24 0 23 1;
#X connect 25 0 24 0;
#X connect 27 0 10 0;
