#N canvas 544 29 643 512 10;
#X obj 404 357 t b f;
#X obj 338 415 +;
#X obj 338 440 t b f;
#X obj 338 471 +;
#X obj 263 331 * -65536;
#X obj 338 335 * -256;
#X obj 404 335 * -1;
#X obj 338 502 - 1;
#X obj 263 297 i;
#X obj 263 263 * 255;
#X obj 339 285 i;
#X obj 339 251 * 255;
#X obj 403 287 i;
#X obj 403 253 * 255;
#X msg 267 138 \$1 0.4 1;
#X obj 267 192 unpack f f f;
#X obj 267 105 inlet;
#X obj 338 567 outlet;
#X msg 339 534 color \$1 -1 -1;
#N canvas 0 0 450 300 hueconverter 0;
#X obj 112 69 route 0;
#X msg 112 41 \$2 \$3 \$1;
#X obj 112 394 f;
#X obj 156 96 unpack 0 0 0;
#X text 175 56 svh;
#X obj 112 13 inlet hsv;
#X obj 112 505 outlet rgb;
#X obj 326 134 * 6;
#X obj 305 181 % 6;
#X obj 275 158 t f f;
#X msg 275 134 0;
#X text 331 181 i;
#X obj 275 204 -;
#X obj 156 202 *;
#X obj 156 163 - 1;
#X obj 156 183 * -1;
#X obj 188 315 *;
#X obj 188 276 - 1;
#X obj 188 296 * -1;
#X obj 188 254 *;
#X obj 275 225 t f f;
#X obj 305 247 - 1;
#X obj 305 268 * -1;
#X obj 227 341 *;
#X obj 227 302 - 1;
#X obj 227 322 * -1;
#X obj 227 280 *;
#X obj 156 136 t f f f;
#X obj 166 377 pack 0 0 0 0;
#N canvas 387 255 646 315 select 0;
#X obj 290 37 inlet;
#X obj 16 247 outlet;
#X obj 92 104 t b l;
#X obj 125 128 unpack 0 0 0 0;
#X obj 89 43 inlet p q t v;
#X obj 92 128 i;
#X obj 92 151 select 0 1 2 3 4 5;
#X obj 16 223 pack 0 0 0;
#X obj 16 203 f;
#X obj 96 223 pack 0 0 0;
#X obj 96 203 f;
#X obj 176 223 pack 0 0 0;
#X obj 176 203 f;
#X obj 256 223 pack 0 0 0;
#X obj 256 203 f;
#X obj 336 223 pack 0 0 0;
#X obj 336 203 f;
#X obj 416 223 pack 0 0 0;
#X obj 416 203 f;
#X connect 0 0 5 1;
#X connect 2 0 5 0;
#X connect 2 1 3 0;
#X connect 3 0 7 2;
#X connect 3 0 9 2;
#X connect 3 0 12 1;
#X connect 3 0 14 1;
#X connect 3 0 15 1;
#X connect 3 0 17 1;
#X connect 3 1 10 1;
#X connect 3 1 13 1;
#X connect 3 1 17 2;
#X connect 3 2 7 1;
#X connect 3 2 11 2;
#X connect 3 2 16 1;
#X connect 3 3 8 1;
#X connect 3 3 9 1;
#X connect 3 3 11 1;
#X connect 3 3 13 2;
#X connect 3 3 15 2;
#X connect 3 3 18 1;
#X connect 4 0 2 0;
#X connect 5 0 6 0;
#X connect 6 0 8 0;
#X connect 6 1 10 0;
#X connect 6 2 12 0;
#X connect 6 3 14 0;
#X connect 6 4 16 0;
#X connect 6 5 18 0;
#X connect 7 0 1 0;
#X connect 8 0 7 0;
#X connect 9 0 1 0;
#X connect 10 0 9 0;
#X connect 11 0 1 0;
#X connect 12 0 11 0;
#X connect 13 0 1 0;
#X connect 14 0 13 0;
#X connect 15 0 1 0;
#X connect 16 0 15 0;
#X connect 17 0 1 0;
#X connect 18 0 17 0;
#X restore 166 401 pd select;
#X msg 112 463 \$1 \$1 \$1;
#X obj 112 435 clip 0 1;
#X obj 156 116 clip 0 1;
#X obj 195 158 clip 0 1;
#X obj 275 94 clip 0 1;
#X obj 275 114 select 1;
#X connect 0 0 2 0;
#X connect 0 1 3 0;
#X connect 1 0 0 0;
#X connect 2 0 31 0;
#X connect 3 0 32 0;
#X connect 3 1 33 0;
#X connect 3 2 34 0;
#X connect 5 0 1 0;
#X connect 7 0 9 0;
#X connect 8 0 12 1;
#X connect 8 0 29 1;
#X connect 9 0 12 0;
#X connect 9 1 8 0;
#X connect 10 0 9 0;
#X connect 12 0 20 0;
#X connect 13 0 28 0;
#X connect 14 0 15 0;
#X connect 15 0 13 0;
#X connect 16 0 28 1;
#X connect 17 0 18 0;
#X connect 18 0 16 0;
#X connect 19 0 17 0;
#X connect 20 0 19 1;
#X connect 20 1 21 0;
#X connect 21 0 22 0;
#X connect 22 0 26 1;
#X connect 23 0 28 2;
#X connect 24 0 25 0;
#X connect 25 0 23 0;
#X connect 26 0 24 0;
#X connect 27 0 14 0;
#X connect 27 1 19 0;
#X connect 27 2 26 0;
#X connect 28 0 29 0;
#X connect 29 0 6 0;
#X connect 30 0 6 0;
#X connect 31 0 30 0;
#X connect 32 0 27 0;
#X connect 33 0 13 1;
#X connect 33 0 28 3;
#X connect 33 0 16 1;
#X connect 33 0 23 1;
#X connect 34 0 35 0;
#X connect 35 0 10 0;
#X connect 35 1 7 0;
#X restore 267 164 pd hueconverter;
#X connect 0 0 1 0;
#X connect 0 1 1 1;
#X connect 1 0 2 0;
#X connect 2 0 3 0;
#X connect 2 1 3 1;
#X connect 3 0 7 0;
#X connect 4 0 3 0;
#X connect 5 0 1 0;
#X connect 6 0 0 0;
#X connect 7 0 18 0;
#X connect 8 0 4 0;
#X connect 9 0 8 0;
#X connect 10 0 5 0;
#X connect 11 0 10 0;
#X connect 12 0 6 0;
#X connect 13 0 12 0;
#X connect 14 0 19 0;
#X connect 15 0 9 0;
#X connect 15 1 11 0;
#X connect 15 2 13 0;
#X connect 16 0 14 0;
#X connect 18 0 17 0;
#X connect 19 0 15 0;
