#N canvas 544 238 450 303 10;
#X obj 120 -27 inlet;
#X obj 120 192 outlet;
#X obj 178 -27 inlet;
#X obj 120 1 / \$1;
#X obj 120 167 * \$1;
#X obj 150 59 int;
#X obj 120 33 t f f;
#X obj 120 85 -;
#X obj 120 112 moses 0;
#X obj 120 140 + 1;
#X connect 0 0 3 0;
#X connect 2 0 3 1;
#X connect 2 0 9 1;
#X connect 3 0 6 0;
#X connect 4 0 1 0;
#X connect 5 0 7 1;
#X connect 6 0 7 0;
#X connect 6 1 5 0;
#X connect 7 0 8 0;
#X connect 8 0 9 0;
#X connect 8 1 4 0;
#X connect 9 0 4 0;
