#N canvas 728 151 441 481 10;
#X msg 76 275 hue \$1;
#X obj 137 38 loadbang;
#X obj 151 390 outlet;
#X obj 77 150 r \$1hue;
#X msg 146 251 stave \$2 \, id \$1 \, ready, f 9;
#X obj 145 204 pack 0 0;
#X obj 141 88 s \$1button\$2;
#X obj 141 113 r \$1button\$2;
#X obj 146 177 f \$1;
#X obj 145 154 t b b;
#X obj 189 177 f \$2;
#X obj 152 338 cyclone/prepend \$2;
#X connect 0 0 11 0;
#X connect 1 0 6 0;
#X connect 3 0 0 0;
#X connect 4 0 11 0;
#X connect 5 0 4 0;
#X connect 7 0 9 0;
#X connect 8 0 5 0;
#X connect 9 0 8 0;
#X connect 9 1 10 0;
#X connect 10 0 5 1;
#X connect 11 0 2 0;
