#N canvas -8 -8 1554 795 10;
#X obj 40 80 i;
#X obj 40 110 change;
#X msg 40 200 list ticks 16ths 12ths 8ths beats bars, f 18;
#X obj 40 256 cyclone/zl nth, f 21;
#X obj 40 170 t b f, f 21;
#X obj 40 140 + 1;
#X obj 40 286 cyclone/prepend label;
#X text 197 204 todo: calculate bars according to time signature,
f 17;
#X obj 184 256 cyclone/zl nth, f 21;
#X obj 184 140 t b f, f 21;
#X msg 184 170 1 6 8 12 24 96, f 18;
#X obj 183 345 *;
#X obj 196 309 t b f;
#X obj 39 46 inlet;
#X obj 205 277 inlet;
#X obj 37 399 outlet;
#X obj 181 399 outlet;
#X connect 0 0 1 0;
#X connect 1 0 5 0;
#X connect 2 0 3 0;
#X connect 3 0 6 0;
#X connect 4 0 2 0;
#X connect 4 1 3 1;
#X connect 5 0 4 0;
#X connect 5 0 9 0;
#X connect 6 0 15 0;
#X connect 8 0 11 0;
#X connect 9 0 10 0;
#X connect 9 1 8 1;
#X connect 10 0 8 0;
#X connect 11 0 16 0;
#X connect 12 0 11 0;
#X connect 12 1 11 1;
#X connect 13 0 0 0;
#X connect 14 0 12 0;
